<?xml version="1.0" standalone="no"?>
<!DOCTYPE svg PUBLIC "-//W3C//DTD SVG 1.1//EN" "http://www.w3.org/Graphics/SVG/1.1/DTD/svg11.dtd" >
<svg xmlns="http://www.w3.org/2000/svg">
<metadata>Generated by IcoMoon</metadata>
<defs>
<font id="UIcons" horiz-adv-x="1024">
<font-face units-per-em="1024" ascent="960" descent="-64" />
<missing-glyph horiz-adv-x="1024" />
<glyph unicode="&#x20;" horiz-adv-x="512" d="" />
<glyph unicode="&#xe900;" glyph-name="activity-heart" d="M149.542 808.543c114.668 97.974 262.289 80.058 362.126-7.209 99.725 87.321 245.794 103.958 361.749 7.584 126.874-105.449 142.11-285.283 44.416-411-33.92-43.652-97.062-107.038-160.333-167.377-63.979-61.009-130.462-121.143-172.791-158.916-7.245-6.464-14.528-12.975-21.21-18.039-7.189-5.453-16.030-11.081-27.29-14.46-15.868-4.753-33.135-4.753-49.003 0-11.26 3.379-20.1 9.007-27.29 14.46-6.682 5.065-13.965 11.575-21.21 18.039-42.33 37.777-108.853 97.907-172.832 158.916-63.265 60.335-126.372 123.729-160.292 167.377-98.068 126.199-80.057 304.657 43.958 410.625zM479.292 713.126c-72.747 85.047-188.379 103.939-274.292 30.542-89.741-76.677-101.838-203.604-32.042-293.415 29.478-37.931 88.122-97.203 151.834-157.961 63.007-60.087 128.742-119.514 170.752-157.001 8.23-7.343 12.582-11.179 15.915-13.709 0.077-0.055 0.179-0.111 0.252-0.166 0.073 0.055 0.171 0.111 0.247 0.166 3.332 2.53 7.689 6.366 15.919 13.709 42.010 37.487 107.742 96.913 170.748 157.001 63.714 60.757 122.355 120.030 151.834 157.961 70.174 90.296 58.982 217.767-31.582 293.040-88.192 73.299-202.321 54.508-274.752-30.167-8.102-9.47-19.951-14.916-32.414-14.917-12.467 0-24.311 5.447-32.418 14.917zM472.375 639.876c17.199-1.23 31.957-12.682 37.414-29.041l52.753-158.29 17.958 35.874c7.228 14.455 22.003 23.582 38.165 23.582h42.667c23.565 0 42.667-19.102 42.667-42.667s-19.102-42.667-42.667-42.667h-16.29l-52.211-104.414c-7.714-15.437-23.991-24.683-41.207-23.458-17.199 1.229-31.957 12.681-37.414 29.039l-52.791 158.336-17.92-35.917c-7.228-14.455-22.004-23.586-38.165-23.586h-42.667c-23.564 0-42.667 19.102-42.667 42.667s19.103 42.667 42.667 42.667h16.292l52.209 104.418c7.718 15.435 23.991 24.682 41.207 23.458z" />
<glyph unicode="&#xe901;" glyph-name="activity" d="M384 874.667c18.361 0 34.647-11.751 40.458-29.167l215.542-646.627 87.543 262.626 2.624 6.251c7.262 13.922 21.764 22.916 37.833 22.916h170.667c23.565 0 42.667-19.102 42.667-42.667s-19.102-42.667-42.667-42.667h-139.917l-118.293-354.833c-5.811-17.417-22.097-29.167-40.457-29.167s-34.645 11.75-40.457 29.167l-215.543 646.625-87.542-262.625c-5.811-17.417-22.097-29.167-40.458-29.167h-170.667c-23.564 0-42.667 19.102-42.667 42.667s19.103 42.667 42.667 42.667h139.917l118.292 354.833 2.625 6.25c7.262 13.923 21.763 22.917 37.833 22.917z" />
<glyph unicode="&#xe902;" glyph-name="airplay" d="M495.415 348.501c12.672 3.396 26.133 2.825 38.545-1.711 11.209-4.096 18.94-10.944 23.748-15.791 4.54-4.574 9.28-10.351 13.291-15.168l140.459-168.542c6.895-8.269 13.99-16.708 19.085-24.081 4.019-5.82 10.948-16.563 12.791-30.669l0.457-6.246-0.333-7.334c-1.694-16.922-10.078-32.606-23.458-43.418-13.35-10.782-28.745-12.727-36.791-13.457-8.93-0.811-19.977-0.751-30.75-0.751h-280.917c-10.772 0-21.82-0.060-30.75 0.751-8.049 0.73-23.44 2.675-36.792 13.457-15.297 12.361-24.086 31.083-23.792 50.752l0.459 6.246c1.84 14.106 8.773 24.849 12.791 30.669 5.095 7.373 12.19 15.812 19.084 24.081l140.459 168.542c4.011 4.817 8.755 10.594 13.291 15.168 4.809 4.847 12.54 11.695 23.753 15.791l5.372 1.711zM389.75 106.667h244.498l-122.249 146.709-122.25-146.709zM896 320v307.208c0 36.539-0.013 61.382-1.583 80.584-1.527 18.705-4.309 28.285-7.71 34.958-8.179 16.054-21.235 29.111-37.291 37.292-6.673 3.4-16.252 6.18-34.957 7.709-19.204 1.568-44.045 1.583-80.585 1.583h-443.75c-36.539 0-61.382-0.015-80.584-1.583-18.705-1.528-28.285-4.308-34.958-7.709-16.053-8.18-29.111-21.238-37.292-37.292-3.4-6.673-6.18-16.253-7.709-34.958-1.568-19.202-1.583-44.044-1.583-80.584v-307.208c0-47.13 38.205-85.333 85.333-85.333 23.564 0 42.667-19.102 42.667-42.667s-19.102-42.667-42.667-42.667c-94.257 0-170.667 76.412-170.667 170.667v307.208c0 35.136-0.044 64.059 1.875 87.542 1.96 23.981 6.158 46.044 16.708 66.75 16.361 32.107 42.476 58.222 74.583 74.583 20.706 10.551 42.769 14.749 66.75 16.708 23.483 1.919 52.406 1.875 87.542 1.875h443.75c35.136 0 64.060 0.044 87.543-1.875 23.979-1.96 46.042-6.158 66.748-16.708 32.107-16.361 58.223-42.476 74.586-74.583 10.547-20.706 14.746-42.769 16.708-66.75 1.916-23.483 1.873-52.406 1.873-87.542v-307.208c0-94.255-76.412-170.667-170.667-170.667-23.565 0-42.667 19.102-42.667 42.667s19.102 42.667 42.667 42.667c47.13 0 85.333 38.204 85.333 85.333z" />
<glyph unicode="&#xe903;" glyph-name="airpods" d="M394.667 634.667c0 73.638-59.695 133.333-133.333 133.333s-133.333-59.695-133.333-133.333c0-73.638 59.695-133.333 133.333-133.333 6.153 0 12.059 0.021 16.791-0.166 2.807-0.111 8.079-0.329 14-1.626l6.083-1.707 5.958-2.334c6.138-2.735 12.65-6.733 18.625-12.71 7.96-7.957 12.387-16.887 15.042-24.58 2.638-7.646 3.101-14.822 3.292-18.833 0.205-4.322 0.208-9.51 0.208-14.379v-270.332c0-14.729 11.939-26.667 26.667-26.667s26.667 11.938 26.667 26.667v480zM896 634.667c0 73.638-59.695 133.333-133.333 133.333s-133.333-59.695-133.333-133.333v-480c0-14.729 11.938-26.667 26.667-26.667s26.667 11.938 26.667 26.667v270.332c0 4.868 0.004 10.057 0.209 14.379 0.188 4.011 0.653 11.187 3.29 18.833l2.334 5.956c2.735 6.14 6.733 12.651 12.71 18.624 7.957 7.962 16.887 12.39 24.58 15.044l6.084 1.707c5.922 1.297 11.196 1.515 13.999 1.626 4.736 0.188 10.641 0.166 16.794 0.166 73.638 0 133.333 59.695 133.333 133.333zM480 154.667c0-61.854-50.146-112-112-112-61.856 0-112 50.146-112 112v261.5c-118.301 2.833-213.333 99.516-213.333 218.5 0 120.766 97.9 218.667 218.667 218.667s218.667-97.9 218.667-218.667v-480zM981.333 634.667c0-118.985-95.031-215.667-213.333-218.5v-261.5c0-61.854-50.146-112-112-112s-112 50.146-112 112v480c0 120.766 97.899 218.667 218.667 218.667s218.667-97.9 218.667-218.667z" />
<glyph unicode="&#xe904;" glyph-name="alarm-clock-check" d="M810.667 405.338c0 79.211-31.445 155.197-87.458 211.207-56.009 56.011-131.994 87.459-211.209 87.459-79.211 0-155.195-31.447-211.206-87.459s-87.458-131.997-87.458-211.207c0-79.211 31.447-155.2 87.458-211.209 56.011-56.013 131.996-87.458 211.206-87.458 79.215 0 155.2 31.445 211.209 87.458 56.013 56.009 87.458 131.998 87.458 211.209zM631.168 520.836c16.661 16.663 43.674 16.663 60.335 0 16.661-16.661 16.661-43.669 0-60.335l-192-192c-16.661-16.661-43.674-16.661-60.335 0l-85.332 85.333c-16.663 16.666-16.663 43.674 0 60.335s43.671 16.661 60.333 0l55.165-55.168 161.835 161.835zM183.169 862.17c16.662 16.662 43.671 16.662 60.333 0s16.662-43.671 0-60.334l-128-128c-16.663-16.662-43.671-16.662-60.333 0s-16.663 43.671 0 60.334l128 128zM780.501 862.17c16.661 16.662 43.674 16.662 60.335 0l128-128c16.661-16.663 16.661-43.671 0-60.334s-43.674-16.662-60.335 0l-128 128c-16.661 16.663-16.661 43.671 0 60.334zM896 405.338c0-87.518-29.935-171.904-84.041-239.625l71.543-71.543c16.661-16.661 16.661-43.669 0-60.335-16.661-16.661-43.674-16.661-60.335 0l-71.539 71.543c-67.725-54.101-152.111-84.041-239.629-84.041-87.526 0-171.939 29.926-239.665 84.041l-71.5-71.543c-16.663-16.661-43.671-16.661-60.333 0-16.663 16.666-16.663 43.674 0 60.335l71.5 71.543c-54.093 67.716-84 152.115-84 239.625 0 101.841 40.444 199.527 112.458 271.54s169.699 112.459 271.54 112.459c101.845 0 199.531-40.445 271.543-112.459s112.457-169.699 112.457-271.54z" />
<glyph unicode="&#xe905;" glyph-name="alarm-clock-minus" d="M810.667 405.338c0 79.211-31.445 155.197-87.458 211.207-56.009 56.011-131.994 87.459-211.209 87.459-79.211 0-155.195-31.447-211.206-87.459s-87.458-131.997-87.458-211.207c0-79.211 31.447-155.2 87.458-211.209 56.011-56.013 131.996-87.458 211.206-87.458 79.215 0 155.2 31.445 211.209 87.458 56.013 56.009 87.458 131.998 87.458 211.209zM640 448.004c23.565 0 42.667-19.102 42.667-42.667s-19.102-42.667-42.667-42.667h-255.998c-23.564 0-42.667 19.102-42.667 42.667s19.102 42.667 42.667 42.667h255.998zM183.169 862.17c16.662 16.662 43.671 16.662 60.333 0s16.662-43.671 0-60.334l-128-128c-16.663-16.662-43.671-16.662-60.333 0s-16.663 43.671 0 60.334l128 128zM780.501 862.17c16.661 16.662 43.674 16.662 60.335 0l128-128c16.661-16.663 16.661-43.671 0-60.334s-43.674-16.662-60.335 0l-128 128c-16.661 16.663-16.661 43.671 0 60.334zM896 405.338c0-87.518-29.935-171.904-84.041-239.625l71.543-71.543c16.661-16.661 16.661-43.669 0-60.335-16.661-16.661-43.674-16.661-60.335 0l-71.539 71.543c-67.725-54.101-152.111-84.041-239.629-84.041-87.526 0-171.939 29.926-239.665 84.041l-71.5-71.543c-16.663-16.661-43.671-16.661-60.333 0-16.663 16.666-16.663 43.674 0 60.335l71.5 71.543c-54.093 67.716-84 152.115-84 239.625 0 101.841 40.444 199.527 112.458 271.54s169.699 112.459 271.54 112.459c101.845 0 199.531-40.445 271.543-112.459s112.457-169.699 112.457-271.54z" />
<glyph unicode="&#xe906;" glyph-name="alarm-clock-off" d="M97.836 862.17c16.662 16.662 43.671 16.662 60.333 0l645.125-645.125c0.585-0.563 1.161-1.122 1.707-1.707l121.169-121.169c16.661-16.661 16.661-43.669 0-60.335-16.661-16.661-43.674-16.661-60.335 0l-91.375 91.375c-71.044-66.569-164.787-103.872-262.46-103.872-87.526 0-171.939 29.926-239.665 84.041l-71.5-71.543c-16.663-16.661-43.671-16.661-60.333 0-16.663 16.666-16.663 43.674 0 60.335l71.5 71.543c-54.093 67.716-84 152.115-84 239.625 0 97.668 37.264 191.454 103.833 262.499l-61.167 61.167-55.167-55.167c-16.663-16.662-43.671-16.662-60.333 0s-16.663 43.671 0 60.334l55.166 55.167-12.5 12.5c-16.663 16.663-16.663 43.671 0 60.334zM810.667 405.338c0 79.211-31.445 155.197-87.458 211.207-56.009 56.011-131.994 87.459-211.209 87.459-18.927 0-37.67-1.793-56-5.292-23.142-4.419-45.496 10.771-49.915 33.917-4.411 23.142 10.775 45.499 33.915 49.917 23.569 4.498 47.671 6.792 72 6.792 101.845 0 199.531-40.445 271.543-112.459s112.457-169.699 112.457-271.54c0-24.333-2.291-48.435-6.788-72-4.42-23.142-26.778-38.327-49.92-33.916-23.142 4.416-38.332 26.769-33.916 49.916 3.499 18.325 5.291 37.069 5.291 56zM780.501 862.17c16.661 16.662 43.674 16.662 60.335 0l128-128c16.661-16.663 16.661-43.671 0-60.334s-43.674-16.662-60.335 0l-128 128c-16.661 16.663-16.661 43.671 0 60.334zM213.335 405.338c0-79.211 31.447-155.2 87.458-211.209 56.011-56.013 131.996-87.458 211.206-87.458 75.038 0 147.119 28.284 202.129 78.874l-421.961 421.959c-50.591-55.008-78.833-127.128-78.833-202.166z" />
<glyph unicode="&#xe907;" glyph-name="alarm-clock-plus" d="M810.667 405.338c0 79.211-31.445 155.197-87.458 211.207-56.009 56.011-131.994 87.459-211.209 87.459-79.211 0-155.195-31.447-211.206-87.459s-87.458-131.997-87.458-211.207c0-79.211 31.447-155.2 87.458-211.209 56.011-56.013 131.996-87.458 211.206-87.458 79.215 0 155.2 31.445 211.209 87.458 56.013 56.009 87.458 131.998 87.458 211.209zM469.333 277.338v85.333h-85.331c-23.564 0-42.667 19.102-42.667 42.667s19.102 42.667 42.667 42.667h85.331v85.332c0 23.564 19.106 42.667 42.667 42.667 23.565 0 42.667-19.103 42.667-42.667v-85.332h85.333c23.565 0 42.667-19.102 42.667-42.667s-19.102-42.667-42.667-42.667h-85.333v-85.333c0-23.565-19.102-42.667-42.667-42.667-23.561 0-42.667 19.102-42.667 42.667zM183.169 862.17c16.662 16.662 43.671 16.662 60.333 0s16.662-43.671 0-60.334l-128-128c-16.663-16.662-43.671-16.662-60.333 0s-16.663 43.671 0 60.334l128 128zM780.501 862.17c16.661 16.662 43.674 16.662 60.335 0l128-128c16.661-16.663 16.661-43.671 0-60.334s-43.674-16.662-60.335 0l-128 128c-16.661 16.663-16.661 43.671 0 60.334zM896 405.338c0-87.518-29.935-171.904-84.041-239.625l71.543-71.543c16.661-16.661 16.661-43.669 0-60.335-16.661-16.661-43.674-16.661-60.335 0l-71.539 71.543c-67.725-54.101-152.111-84.041-239.629-84.041-87.526 0-171.939 29.926-239.665 84.041l-71.5-71.543c-16.663-16.661-43.671-16.661-60.333 0-16.663 16.666-16.663 43.674 0 60.335l71.5 71.543c-54.093 67.716-84 152.115-84 239.625 0 101.841 40.444 199.527 112.458 271.54s169.699 112.459 271.54 112.459c101.845 0 199.531-40.445 271.543-112.459s112.457-169.699 112.457-271.54z" />
<glyph unicode="&#xe908;" glyph-name="alarm-clock" d="M810.667 405.338c0 79.211-31.445 155.197-87.458 211.207-56.009 56.011-131.994 87.459-211.209 87.459-79.211 0-155.195-31.447-211.206-87.459s-87.458-131.997-87.458-211.207c0-79.211 31.447-155.2 87.458-211.209 56.011-56.013 131.996-87.458 211.206-87.458 79.215 0 155.2 31.445 211.209 87.458 56.013 56.009 87.458 131.998 87.458 211.209zM469.333 576.003c0 23.564 19.106 42.667 42.667 42.667 23.565 0 42.667-19.103 42.667-42.667v-153.002l72.836-72.832c16.661-16.661 16.661-43.669 0-60.335-16.661-16.661-43.674-16.661-60.335 0l-85.333 85.333c-8 8.004-12.501 18.854-12.501 30.17v170.666zM183.169 862.17c16.662 16.662 43.671 16.662 60.333 0s16.662-43.671 0-60.334l-128-128c-16.663-16.662-43.671-16.662-60.333 0s-16.663 43.671 0 60.334l128 128zM780.501 862.17c16.661 16.662 43.674 16.662 60.335 0l128-128c16.661-16.663 16.661-43.671 0-60.334s-43.674-16.662-60.335 0l-128 128c-16.661 16.663-16.661 43.671 0 60.334zM896 405.338c0-87.518-29.935-171.904-84.041-239.625l71.543-71.543c16.661-16.661 16.661-43.669 0-60.335-16.661-16.661-43.674-16.661-60.335 0l-71.539 71.543c-67.725-54.101-152.111-84.041-239.629-84.041-87.526 0-171.939 29.926-239.665 84.041l-71.5-71.543c-16.663-16.661-43.671-16.661-60.333 0-16.663 16.666-16.663 43.674 0 60.335l71.5 71.543c-54.093 67.716-84 152.115-84 239.625 0 101.841 40.444 199.527 112.458 271.54s169.699 112.459 271.54 112.459c101.845 0 199.531-40.445 271.543-112.459s112.457-169.699 112.457-271.54z" />
<glyph unicode="&#xe909;" glyph-name="alert-circle" d="M896 448c0 212.077-171.921 384-384 384-212.077 0-384-171.923-384-384 0-212.079 171.923-384 384-384 212.079 0 384 171.921 384 384zM512.418 320c23.565 0 42.667-19.102 42.667-42.667s-19.102-42.667-42.667-42.667h-0.418c-23.565 0-42.667 19.102-42.667 42.667s19.102 42.667 42.667 42.667h0.418zM469.333 448v170.667c0 23.564 19.102 42.667 42.667 42.667s42.667-19.103 42.667-42.667v-170.667c0-23.565-19.102-42.667-42.667-42.667s-42.667 19.102-42.667 42.667zM981.333 448c0-259.204-210.129-469.333-469.333-469.333-259.206 0-469.333 210.129-469.333 469.333 0 259.206 210.128 469.333 469.333 469.333s469.333-210.128 469.333-469.333z" />
<glyph unicode="&#xe90a;" glyph-name="alert-hexagon" d="M853.124 635.86c-0.004 0.087-0.034 0.171-0.043 0.25-0.055 0.036-0.102 0.087-0.166 0.125-2.441 1.557-5.931 3.503-12.749 7.292l-315.75 175.417c-6.46 3.589-9.745 5.438-12.207 6.625-0.077 0.037-0.141 0.092-0.209 0.125-0.068-0.033-0.132-0.088-0.209-0.125-2.462-1.187-5.747-3.036-12.207-6.625l-315.751-175.417c-6.819-3.788-10.306-5.735-12.75-7.292-0.072-0.045-0.143-0.083-0.209-0.125-0.005-0.079 0.005-0.164 0-0.25-0.174-2.893-0.208-6.903-0.208-14.708v-346.332c0-7.787 0.035-11.78 0.208-14.669 0.004-0.068-0.004-0.145 0-0.209 0.071-0.043 0.13-0.115 0.209-0.166 2.444-1.557 5.925-3.541 12.75-7.334l315.751-175.373c6.46-3.593 9.745-5.44 12.207-6.626 0.073-0.034 0.145-0.051 0.209-0.081 0.064 0.030 0.137 0.047 0.209 0.081 2.462 1.186 5.743 3.034 12.207 6.626l315.75 175.373c6.827 3.793 10.304 5.777 12.749 7.334 0.068 0.043 0.107 0.128 0.166 0.166 0.004 0.064 0.038 0.141 0.043 0.209 0.175 2.889 0.209 6.882 0.209 14.669v346.332c0 7.805-0.034 11.815-0.209 14.708zM512.418 319.987c23.565 0 42.667-19.106 42.667-42.667-0.013-23.556-19.11-42.667-42.667-42.667h-0.418c-23.561 0-42.658 19.11-42.667 42.667 0 23.561 19.102 42.667 42.667 42.667h0.418zM469.333 447.987v170.665c0 23.564 19.102 42.667 42.667 42.667s42.667-19.102 42.667-42.667v-170.665c-0.009-23.556-19.106-42.667-42.667-42.667s-42.658 19.11-42.667 42.667zM938.667 265.442c-0.081-9.993-0.674-21.508-4.292-32.457-3.81-11.533-10.061-22.11-18.291-31.040-10.406-11.294-24.247-18.415-34.458-24.085l-315.75-175.415c-9.681-5.38-22.345-12.928-36.668-15.876-11.341-2.334-23.074-2.334-34.415 0-14.323 2.948-26.987 10.496-36.668 15.876l-315.75 175.415c-10.211 5.67-24.050 12.791-34.458 24.085-8.23 8.93-14.48 19.507-18.292 31.040-3.618 10.948-4.211 22.464-4.292 32.457v365.126c0.081 9.987 0.681 21.476 4.292 32.417 3.811 11.535 10.059 22.15 18.292 31.083 10.408 11.292 24.248 18.412 34.458 24.083l315.75 175.417c9.681 5.378 22.345 12.926 36.668 15.875 8.503 1.749 17.229 2.208 25.83 1.333l8.585-1.333 5.291-1.292c12.151-3.497 22.908-9.877 31.377-14.583l315.75-175.417c10.21-5.672 24.051-12.791 34.458-24.083 6.178-6.703 11.213-14.357 14.959-22.625l3.332-8.458 1.54-5.5c2.24-9.225 2.684-18.591 2.752-26.917v-365.126z" />
<glyph unicode="&#xe90b;" glyph-name="alert-octagon" d="M895.919 606.754c-0.004 0.052-0.038 0.119-0.043 0.167-0.030 0.035-0.047 0.087-0.081 0.125-1.37 1.498-3.345 3.467-7.292 7.416l-210.044 210.042c-3.951 3.949-5.918 5.925-7.415 7.291-0.055 0.049-0.119 0.082-0.166 0.125h-0.128c-2.022 0.092-4.809 0.084-10.372 0.084h-296.751c-5.564 0-8.352 0.008-10.375-0.084-0.051-0.002-0.119 0.003-0.166 0-0.041-0.037-0.080-0.084-0.125-0.125-1.498-1.367-3.468-3.342-7.417-7.291l-210.042-210.042c-3.95-3.949-5.925-5.919-7.292-7.416-0.041-0.045-0.088-0.084-0.125-0.125-0.003-0.047 0.002-0.116 0-0.167-0.092-2.023-0.083-4.811-0.083-10.375v-296.752c0-5.564-0.009-8.35 0.083-10.372v-0.124c0.043-0.051 0.076-0.115 0.125-0.171 1.367-1.498 3.342-3.465 7.292-7.415l210.042-210.039c3.949-3.951 5.919-5.926 7.417-7.292 0.038-0.034 0.090-0.051 0.125-0.085 0.048 0 0.115-0.038 0.166-0.043 2.023-0.090 4.812-0.081 10.375-0.081h296.751c5.564 0 8.35-0.009 10.372 0.081l0.128 0.043c0.038 0.038 0.119 0.043 0.166 0.085 1.498 1.365 3.465 3.341 7.415 7.292l210.044 210.039c3.947 3.951 5.922 5.918 7.292 7.415 0.038 0.047 0.043 0.128 0.081 0.171l0.043 0.124c0.090 2.022 0.081 4.809 0.081 10.372v296.752c0 5.564 0.009 8.352-0.081 10.375zM512.418 320.004c23.565 0 42.667-19.102 42.667-42.667s-19.102-42.667-42.667-42.667h-0.418c-23.561 0-42.667 19.102-42.667 42.667s19.106 42.667 42.667 42.667h0.418zM469.333 448.004v170.666c0 23.564 19.106 42.667 42.667 42.667 23.565 0 42.667-19.103 42.667-42.667v-170.666c0-23.565-19.102-42.667-42.667-42.667-23.561 0-42.667 19.102-42.667 42.667zM981.333 299.627c0-8.401 0.256-19.541-2.372-30.498-2.091-8.704-5.534-17.033-10.21-24.666-5.888-9.613-13.973-17.31-19.917-23.249l-210.039-210.044c-5.943-5.943-13.641-14.025-23.253-19.917-7.633-4.676-15.957-8.119-24.666-10.21-10.953-2.628-22.097-2.372-30.498-2.372h-296.751c-8.401 0-19.545-0.256-30.5 2.372-8.705 2.091-17.033 5.534-24.666 10.21-9.612 5.892-17.307 13.973-23.25 19.917l-210.042 210.044c-5.943 5.939-14.026 13.636-19.916 23.249-4.678 7.633-8.119 15.962-10.208 24.666-2.629 10.957-2.375 22.097-2.375 30.498v296.752c0 8.401-0.254 19.545 2.375 30.5 2.090 8.705 5.531 17.033 10.208 24.666 5.89 9.612 13.973 17.307 19.916 23.25l210.042 210.042c5.943 5.943 13.638 14.026 23.25 19.916 7.633 4.678 15.961 8.119 24.666 10.208 10.956 2.629 22.098 2.375 30.5 2.375h296.751c8.401 0 19.546 0.254 30.498-2.375 8.704-2.090 17.033-5.531 24.666-10.208 9.613-5.89 17.31-13.973 23.253-19.916l210.039-210.042c5.943-5.943 14.029-13.638 19.917-23.25 3.511-5.728 6.345-11.834 8.418-18.208l1.792-6.458 1.498-8.208c1.033-8.148 0.875-15.992 0.875-22.292v-296.752z" />
<glyph unicode="&#xe90c;" glyph-name="alert-square" d="M853.333 627.208c0 36.539-0.013 61.382-1.583 80.584-1.527 18.705-4.309 28.285-7.71 34.958-8.179 16.053-21.235 29.111-37.291 37.292-6.673 3.4-16.252 6.18-34.957 7.709-19.204 1.568-44.045 1.583-80.585 1.583h-358.417c-36.539 0-61.382-0.015-80.584-1.583-18.705-1.528-28.285-4.308-34.958-7.709-16.053-8.18-29.111-21.238-37.292-37.292-3.4-6.673-6.18-16.253-7.709-34.958-1.568-19.202-1.583-44.044-1.583-80.584v-358.417c0-36.54 0.015-61.38 1.583-80.585 1.528-18.705 4.308-28.284 7.709-34.957 8.18-16.055 21.238-29.111 37.292-37.291 6.673-3.401 16.253-6.182 34.958-7.71 19.202-1.57 44.044-1.583 80.584-1.583h358.417c36.54 0 61.38 0.013 80.585 1.583 18.705 1.527 28.284 4.309 34.957 7.71 16.055 8.179 29.111 21.235 37.291 37.291 3.401 6.673 6.182 16.252 7.71 34.957 1.57 19.204 1.583 44.045 1.583 80.585v358.417zM512.418 320c23.565 0 42.667-19.102 42.667-42.667s-19.102-42.667-42.667-42.667h-0.418c-23.565 0-42.667 19.102-42.667 42.667s19.102 42.667 42.667 42.667h0.418zM469.333 448v170.667c0 23.564 19.102 42.667 42.667 42.667s42.667-19.103 42.667-42.667v-170.667c0-23.565-19.102-42.667-42.667-42.667s-42.667 19.102-42.667 42.667zM938.667 268.791c0-35.136 0.043-64.060-1.873-87.543-1.963-23.979-6.161-46.042-16.708-66.748-16.363-32.107-42.479-58.223-74.586-74.586-20.706-10.547-42.769-14.746-66.748-16.708-23.484-1.916-52.407-1.873-87.543-1.873h-358.417c-35.136 0-64.059-0.043-87.542 1.873-23.981 1.963-46.044 6.161-66.75 16.708-32.107 16.363-58.222 42.479-74.583 74.586-10.551 20.706-14.749 42.769-16.708 66.748-1.919 23.484-1.875 52.407-1.875 87.543v358.417c0 35.136-0.044 64.059 1.875 87.542 1.96 23.981 6.158 46.044 16.708 66.75 16.361 32.107 42.476 58.222 74.583 74.583 20.706 10.551 42.769 14.749 66.75 16.708 23.483 1.919 52.406 1.875 87.542 1.875h358.417c35.136 0 64.060 0.044 87.543-1.875 23.979-1.96 46.042-6.158 66.748-16.708 32.107-16.361 58.223-42.476 74.586-74.583 10.547-20.706 14.746-42.769 16.708-66.75 1.916-23.483 1.873-52.406 1.873-87.542v-358.417z" />
<glyph unicode="&#xe90d;" glyph-name="alert-triangle" d="M477.333 888.8c19.307 8.585 41.007 9.689 60.915 3.25l8.418-3.25 6.123-3.083c13.641-7.782 22.967-19.192 29.709-28.708 7.829-11.053 16.226-25.649 25.502-41.667l350.916-606.168c9.31-16.081 17.839-30.669 23.539-42.999 5.611-12.122 11.691-28.442 9.749-47.040-2.509-24.064-15.138-45.939-34.705-60.169-15.125-10.991-32.286-13.862-45.585-15.083-13.525-1.242-30.417-1.207-48.998-1.207h-701.876c-18.576 0-35.478-0.034-49 1.207-13.3 1.22-30.464 4.092-45.583 15.083-19.564 14.229-32.153 36.109-34.667 60.169-1.939 18.598 4.141 34.918 9.75 47.040 5.702 12.326 14.193 26.927 23.5 42.999l350.959 606.168c9.272 16.017 17.674 30.615 25.499 41.667 7.706 10.878 18.79 24.213 35.836 31.791zM511.125 807.675c-5.030-7.1-11.183-17.618-21.295-35.084l-350.915-606.166c-10.151-17.532-16.247-28.151-19.917-36.083-0.209-0.452-0.367-0.896-0.542-1.293 0.429-0.047 0.882-0.162 1.375-0.209 8.7-0.798 20.954-0.832 41.208-0.832h701.876c20.262 0 32.503 0.034 41.207 0.832 0.491 0.047 0.947 0.162 1.374 0.209-0.175 0.393-0.29 0.845-0.499 1.293-3.669 7.932-9.762 18.547-19.917 36.083l-350.959 606.166c-10.112 17.465-16.265 27.985-21.291 35.084-0.286 0.405-0.619 0.735-0.875 1.083-0.252-0.341-0.555-0.689-0.832-1.083zM512.414 277.342c23.561 0 42.662-19.106 42.667-42.667 0-23.565-19.102-42.667-42.667-42.667h-0.414c-23.565 0-42.667 19.102-42.667 42.667 0.004 23.561 19.106 42.667 42.667 42.667h0.414zM469.333 405.342v170.667c0.004 23.56 19.106 42.667 42.667 42.667 23.556-0.006 42.658-19.11 42.667-42.667v-170.667c0-23.561-19.11-42.662-42.667-42.667-23.565 0-42.667 19.102-42.667 42.667z" />
<glyph unicode="&#xe90e;" glyph-name="align-bottom-01" d="M896 106.667c23.565 0 42.667-19.102 42.667-42.667s-19.102-42.667-42.667-42.667h-768c-23.564 0-42.667 19.102-42.667 42.667s19.103 42.667 42.667 42.667h768zM469.333 832c0 23.564 19.102 42.667 42.667 42.667s42.667-19.103 42.667-42.667v-494.332l225.835 225.832c16.661 16.663 43.669 16.662 60.331 0 16.666-16.662 16.666-43.671 0-60.332l-298.667-298.667c-8-8.004-18.85-12.501-30.165-12.501s-22.165 4.497-30.165 12.501l-298.668 298.667c-16.663 16.661-16.662 43.67 0 60.332s43.671 16.663 60.333 0l225.833-225.832v494.332z" />
<glyph unicode="&#xe90f;" glyph-name="align-bottom-02" d="M384 704c0 20.464-0.018 33.681-0.708 43.792-0.664 9.724-1.807 13.433-2.542 15.208-4.33 10.45-12.633 18.753-23.084 23.084-1.775 0.735-5.484 1.878-15.208 2.542-10.111 0.69-23.328 0.708-43.792 0.708s-33.681-0.018-43.792-0.708c-9.724-0.664-13.433-1.807-15.208-2.542-10.45-4.33-18.753-12.633-23.084-23.084-0.735-1.775-1.878-5.484-2.542-15.208-0.69-10.111-0.708-23.328-0.708-43.792v-512c0-20.463 0.018-33.681 0.708-43.793 0.664-9.724 1.807-13.431 2.542-15.206 4.33-10.449 12.633-18.752 23.084-23.083 1.775-0.738 5.484-1.877 15.208-2.543 10.111-0.691 23.328-0.708 43.792-0.708s33.681 0.017 43.792 0.708c9.724 0.666 13.433 1.805 15.208 2.543 10.45 4.331 18.753 12.634 23.084 23.083 0.735 1.775 1.878 5.483 2.542 15.206 0.69 10.112 0.708 23.33 0.708 43.793v512zM810.667 533.333c0 20.464-0.017 33.681-0.708 43.792-0.666 9.724-1.805 13.433-2.543 15.208-4.331 10.45-12.634 18.753-23.083 23.084-1.775 0.735-5.483 1.878-15.206 2.542-10.112 0.69-23.33 0.708-43.793 0.708s-33.681-0.018-43.793-0.708c-9.724-0.664-13.431-1.807-15.206-2.542-10.449-4.33-18.752-12.633-23.083-23.084-0.738-1.775-1.877-5.484-2.543-15.208-0.691-10.111-0.708-23.328-0.708-43.792v-341.333c0-20.463 0.017-33.681 0.708-43.793 0.666-9.724 1.805-13.431 2.543-15.206 4.331-10.449 12.634-18.752 23.083-23.083 1.775-0.738 5.483-1.877 15.206-2.543 10.112-0.691 23.33-0.708 43.793-0.708s33.681 0.017 43.793 0.708c9.724 0.666 13.431 1.805 15.206 2.543 10.449 4.331 18.752 12.634 23.083 23.083 0.738 1.775 1.877 5.483 2.543 15.206 0.691 10.112 0.708 23.33 0.708 43.793v341.333zM896 192c0-19.29 0.017-35.895-0.917-49.583-0.96-14.071-3.072-28.177-8.832-42.082-12.992-31.351-37.901-56.26-69.252-69.252-13.905-5.76-28.011-7.872-42.082-8.832-13.687-0.934-30.293-0.917-49.583-0.917s-35.895-0.017-49.583 0.917c-14.071 0.96-28.177 3.072-42.082 8.832-31.351 12.992-56.26 37.901-69.252 69.252-5.76 13.905-7.872 28.011-8.832 42.082-0.934 13.687-0.917 30.293-0.917 49.583v341.333c0 19.291-0.017 35.896 0.917 49.583 0.96 14.073 3.072 28.177 8.832 42.083 12.992 31.35 37.901 56.259 69.252 69.25 13.905 5.76 28.011 7.873 42.082 8.834 13.687 0.933 30.293 0.916 49.583 0.916s35.895 0.017 49.583-0.916c14.071-0.96 28.177-3.073 42.082-8.834 31.351-12.991 56.26-37.9 69.252-69.25 5.76-13.906 7.872-28.011 8.832-42.083 0.934-13.687 0.917-30.292 0.917-49.583v-341.333zM469.333 192c0-19.29 0.017-35.895-0.917-49.583-0.96-14.071-3.072-28.177-8.832-42.082-12.992-31.351-37.9-56.26-69.251-69.252-13.906-5.76-28.011-7.872-42.083-8.832-13.687-0.934-30.292-0.917-49.583-0.917s-35.896-0.017-49.583 0.917c-14.073 0.96-28.177 3.072-42.083 8.832-31.35 12.992-56.259 37.901-69.25 69.252-5.76 13.905-7.873 28.011-8.834 42.082-0.933 13.687-0.916 30.293-0.916 49.583v512c0 19.291-0.017 35.896 0.916 49.583 0.96 14.073 3.073 28.177 8.834 42.083 12.991 31.35 37.9 56.259 69.25 69.25 13.906 5.76 28.011 7.873 42.083 8.834 13.687 0.933 30.292 0.916 49.583 0.916s35.896 0.017 49.583-0.916c14.073-0.96 28.177-3.073 42.083-8.834 31.35-12.991 56.259-37.9 69.251-69.25 5.76-13.906 7.872-28.011 8.832-42.083 0.934-13.687 0.917-30.292 0.917-49.583v-512z" />
<glyph unicode="&#xe910;" glyph-name="align-center" d="M768 234.667c23.565 0 42.667-19.102 42.667-42.667s-19.102-42.667-42.667-42.667h-512c-23.564 0-42.667 19.102-42.667 42.667s19.103 42.667 42.667 42.667h512zM896 405.333c23.565 0 42.667-19.102 42.667-42.667s-19.102-42.667-42.667-42.667h-768c-23.564 0-42.667 19.102-42.667 42.667s19.103 42.667 42.667 42.667h768zM768 576c23.565 0 42.667-19.103 42.667-42.667s-19.102-42.667-42.667-42.667h-512c-23.564 0-42.667 19.102-42.667 42.667s19.103 42.667 42.667 42.667h512zM896 746.667c23.565 0 42.667-19.103 42.667-42.667s-19.102-42.667-42.667-42.667h-768c-23.564 0-42.667 19.103-42.667 42.667s19.103 42.667 42.667 42.667h768z" />
<glyph unicode="&#xe911;" glyph-name="align-horizontal-centre-01" d="M469.333 64v768c0 23.564 19.102 42.667 42.667 42.667s42.667-19.103 42.667-42.667v-768c0-23.565-19.102-42.667-42.667-42.667s-42.667 19.102-42.667 42.667zM161.833 648.833c16.662 16.663 43.671 16.663 60.333 0l170.667-170.668c16.663-16.661 16.663-43.669 0-60.331l-170.667-170.667c-16.662-16.666-43.671-16.666-60.333 0-16.663 16.661-16.663 43.669 0 60.331l97.833 97.835h-174.333c-23.564 0-42.667 19.102-42.667 42.667s19.103 42.667 42.667 42.667h174.333l-97.833 97.833c-16.663 16.662-16.663 43.671 0 60.333zM801.835 648.833c16.661 16.663 43.669 16.663 60.331 0 16.666-16.662 16.666-43.671 0-60.333l-97.83-97.833h174.332c23.565 0 42.667-19.102 42.667-42.667s-19.102-42.667-42.667-42.667h-174.332l97.83-97.835c16.666-16.661 16.666-43.669 0-60.331-16.661-16.666-43.669-16.666-60.331 0l-170.667 170.667c-16.666 16.661-16.666 43.669 0 60.331l170.667 170.668z" />
<glyph unicode="&#xe912;" glyph-name="align-horizontal-centre-02" d="M853.333 234.667c0 20.463-0.017 33.681-0.708 43.793-0.666 9.724-1.805 13.431-2.543 15.206-4.331 10.449-12.634 18.752-23.083 23.083-1.775 0.738-5.483 1.877-15.206 2.543-10.112 0.691-23.33 0.708-43.793 0.708h-512c-20.464 0-33.681-0.017-43.792-0.708-9.724-0.666-13.433-1.805-15.208-2.543-10.45-4.331-18.753-12.634-23.084-23.083-0.735-1.775-1.878-5.483-2.542-15.206-0.69-10.112-0.708-23.33-0.708-43.793s0.018-33.681 0.708-43.793c0.664-9.724 1.807-13.431 2.542-15.206 4.33-10.449 12.633-18.752 23.084-23.083 1.775-0.738 5.484-1.877 15.208-2.543 10.111-0.691 23.328-0.708 43.792-0.708h512c20.463 0 33.681 0.017 43.793 0.708 9.724 0.666 13.431 1.805 15.206 2.543 10.449 4.331 18.752 12.634 23.083 23.083 0.738 1.775 1.877 5.483 2.543 15.206 0.691 10.112 0.708 23.33 0.708 43.793zM768 661.333c0 20.464-0.017 33.681-0.708 43.792-0.666 9.724-1.805 13.433-2.543 15.208-4.331 10.45-12.634 18.753-23.083 23.084-1.775 0.735-5.483 1.878-15.206 2.542-10.112 0.69-23.33 0.708-43.793 0.708h-341.333c-20.464 0-33.681-0.018-43.792-0.708-9.724-0.664-13.433-1.807-15.208-2.542-10.45-4.33-18.753-12.633-23.084-23.084-0.735-1.775-1.878-5.484-2.542-15.208-0.69-10.111-0.708-23.328-0.708-43.792s0.018-33.681 0.708-43.792c0.664-9.724 1.807-13.433 2.542-15.208 4.33-10.45 12.633-18.753 23.084-23.084 1.775-0.735 5.484-1.878 15.208-2.542 10.111-0.69 23.328-0.708 43.792-0.708h341.333c20.463 0 33.681 0.018 43.793 0.708 9.724 0.664 13.431 1.807 15.206 2.542 10.449 4.33 18.752 12.633 23.083 23.084 0.738 1.775 1.877 5.484 2.543 15.208 0.691 10.111 0.708 23.328 0.708 43.792zM938.667 234.667c0-19.29 0.017-35.895-0.917-49.583-0.96-14.071-3.072-28.177-8.832-42.082-12.992-31.351-37.901-56.26-69.252-69.252-13.905-5.76-28.011-7.872-42.082-8.832-13.687-0.934-30.293-0.917-49.583-0.917h-512c-19.291 0-35.896-0.017-49.583 0.917-14.073 0.96-28.177 3.072-42.083 8.832-31.35 12.992-56.259 37.901-69.25 69.252-5.76 13.905-7.873 28.011-8.834 42.082-0.933 13.687-0.916 30.293-0.916 49.583s-0.017 35.895 0.916 49.583c0.96 14.071 3.073 28.177 8.834 42.082 12.991 31.351 37.9 56.26 69.25 69.252 13.906 5.76 28.011 7.872 42.083 8.832 13.687 0.934 30.292 0.917 49.583 0.917h512c19.29 0 35.895 0.017 49.583-0.917 14.071-0.96 28.177-3.072 42.082-8.832 31.351-12.992 56.26-37.901 69.252-69.252 5.76-13.905 7.872-28.011 8.832-42.082 0.934-13.687 0.917-30.293 0.917-49.583zM853.333 661.333c0-19.291 0.017-35.896-0.917-49.583-0.96-14.073-3.072-28.177-8.832-42.083-12.992-31.35-37.901-56.259-69.252-69.251-13.905-5.76-28.011-7.872-42.082-8.832-13.687-0.934-30.293-0.917-49.583-0.917h-341.333c-19.291 0-35.896-0.017-49.583 0.917-14.073 0.96-28.177 3.072-42.083 8.832-31.35 12.992-56.259 37.9-69.25 69.251-5.76 13.906-7.873 28.011-8.834 42.083-0.933 13.687-0.916 30.292-0.916 49.583s-0.017 35.896 0.916 49.583c0.96 14.073 3.073 28.177 8.834 42.083 12.991 31.35 37.9 56.259 69.25 69.25 13.906 5.76 28.011 7.873 42.083 8.834 13.687 0.933 30.292 0.916 49.583 0.916h341.333c19.29 0 35.895 0.017 49.583-0.916 14.071-0.96 28.177-3.073 42.082-8.834 31.351-12.991 56.26-37.9 69.252-69.25 5.76-13.906 7.872-28.011 8.832-42.083 0.934-13.687 0.917-30.292 0.917-49.583z" />
<glyph unicode="&#xe913;" glyph-name="align-justify" d="M896 234.667c23.565 0 42.667-19.102 42.667-42.667s-19.102-42.667-42.667-42.667h-768c-23.564 0-42.667 19.102-42.667 42.667s19.103 42.667 42.667 42.667h768zM896 405.333c23.565 0 42.667-19.102 42.667-42.667s-19.102-42.667-42.667-42.667h-768c-23.564 0-42.667 19.102-42.667 42.667s19.103 42.667 42.667 42.667h768zM896 576c23.565 0 42.667-19.103 42.667-42.667s-19.102-42.667-42.667-42.667h-768c-23.564 0-42.667 19.102-42.667 42.667s19.103 42.667 42.667 42.667h768zM896 746.667c23.565 0 42.667-19.103 42.667-42.667s-19.102-42.667-42.667-42.667h-768c-23.564 0-42.667 19.103-42.667 42.667s19.103 42.667 42.667 42.667h768z" />
<glyph unicode="&#xe914;" glyph-name="align-left-01" d="M85.333 64v768c0 23.564 19.103 42.667 42.667 42.667s42.667-19.103 42.667-42.667v-768c0-23.565-19.103-42.667-42.667-42.667s-42.667 19.102-42.667 42.667zM567.168 776.833c16.661 16.663 43.669 16.663 60.331 0 16.666-16.662 16.666-43.671 0-60.333l-225.832-225.833h494.333c23.565 0 42.667-19.102 42.667-42.667s-19.102-42.667-42.667-42.667h-494.333l225.832-225.835c16.666-16.661 16.666-43.669 0-60.331-16.661-16.666-43.669-16.666-60.331 0l-298.668 298.667c-16.663 16.661-16.663 43.669 0 60.331l298.668 298.668z" />
<glyph unicode="&#xe915;" glyph-name="align-left-02" d="M853.333 234.667c0 20.463-0.017 33.681-0.708 43.793-0.666 9.724-1.805 13.431-2.543 15.206-4.331 10.449-12.634 18.752-23.083 23.083-1.775 0.738-5.483 1.877-15.206 2.543-10.112 0.691-23.33 0.708-43.793 0.708h-512c-20.464 0-33.681-0.017-43.792-0.708-9.724-0.666-13.433-1.805-15.208-2.543-10.45-4.331-18.753-12.634-23.084-23.083-0.735-1.775-1.878-5.483-2.542-15.206-0.69-10.112-0.708-23.33-0.708-43.793s0.018-33.681 0.708-43.793c0.664-9.724 1.807-13.431 2.542-15.206 4.33-10.449 12.633-18.752 23.084-23.083 1.775-0.738 5.484-1.877 15.208-2.543 10.111-0.691 23.328-0.708 43.792-0.708h512c20.463 0 33.681 0.017 43.793 0.708 9.724 0.666 13.431 1.805 15.206 2.543 10.449 4.331 18.752 12.634 23.083 23.083 0.738 1.775 1.877 5.483 2.543 15.206 0.691 10.112 0.708 23.33 0.708 43.793zM682.667 661.333c0 20.464-0.017 33.681-0.708 43.792-0.666 9.724-1.805 13.433-2.543 15.208-4.331 10.45-12.634 18.753-23.083 23.084-1.775 0.735-5.483 1.878-15.206 2.542-10.112 0.69-23.33 0.708-43.793 0.708h-341.333c-20.464 0-33.681-0.018-43.792-0.708-9.724-0.664-13.433-1.807-15.208-2.542-10.45-4.33-18.753-12.633-23.084-23.084-0.735-1.775-1.878-5.484-2.542-15.208-0.69-10.111-0.708-23.328-0.708-43.792s0.018-33.681 0.708-43.792c0.664-9.724 1.807-13.433 2.542-15.208 4.33-10.45 12.633-18.753 23.084-23.084 1.775-0.735 5.484-1.878 15.208-2.542 10.111-0.69 23.328-0.708 43.792-0.708h341.333c20.463 0 33.681 0.018 43.793 0.708 9.724 0.664 13.431 1.807 15.206 2.542 10.449 4.33 18.752 12.633 23.083 23.084 0.738 1.775 1.877 5.484 2.543 15.208 0.691 10.111 0.708 23.328 0.708 43.792zM938.667 234.667c0-19.29 0.017-35.895-0.917-49.583-0.96-14.071-3.072-28.177-8.832-42.082-12.992-31.351-37.901-56.26-69.252-69.252-13.905-5.76-28.011-7.872-42.082-8.832-13.687-0.934-30.293-0.917-49.583-0.917h-512c-19.291 0-35.896-0.017-49.583 0.917-14.073 0.96-28.177 3.072-42.083 8.832-31.35 12.992-56.259 37.901-69.25 69.252-5.76 13.905-7.873 28.011-8.834 42.082-0.933 13.687-0.916 30.293-0.916 49.583s-0.017 35.895 0.916 49.583c0.96 14.071 3.073 28.177 8.834 42.082 12.991 31.351 37.9 56.26 69.25 69.252 13.906 5.76 28.011 7.872 42.083 8.832 13.687 0.934 30.292 0.917 49.583 0.917h512c19.29 0 35.895 0.017 49.583-0.917 14.071-0.96 28.177-3.072 42.082-8.832 31.351-12.992 56.26-37.901 69.252-69.252 5.76-13.905 7.872-28.011 8.832-42.082 0.934-13.687 0.917-30.293 0.917-49.583zM768 661.333c0-19.291 0.017-35.896-0.917-49.583-0.96-14.073-3.072-28.177-8.832-42.083-12.992-31.35-37.901-56.259-69.252-69.251-13.905-5.76-28.011-7.872-42.082-8.832-13.687-0.934-30.293-0.917-49.583-0.917h-341.333c-19.291 0-35.896-0.017-49.583 0.917-14.073 0.96-28.177 3.072-42.083 8.832-31.35 12.992-56.259 37.9-69.25 69.251-5.76 13.906-7.873 28.011-8.834 42.083-0.933 13.687-0.916 30.292-0.916 49.583s-0.017 35.896 0.916 49.583c0.96 14.073 3.073 28.177 8.834 42.083 12.991 31.35 37.9 56.259 69.25 69.25 13.906 5.76 28.011 7.873 42.083 8.834 13.687 0.933 30.292 0.916 49.583 0.916h341.333c19.29 0 35.895 0.017 49.583-0.916 14.071-0.96 28.177-3.073 42.082-8.834 31.351-12.991 56.26-37.9 69.252-69.25 5.76-13.906 7.872-28.011 8.832-42.083 0.934-13.687 0.917-30.292 0.917-49.583z" />
<glyph unicode="&#xe916;" glyph-name="align-left" d="M682.667 234.667c23.565 0 42.667-19.102 42.667-42.667s-19.102-42.667-42.667-42.667h-554.667c-23.564 0-42.667 19.102-42.667 42.667s19.103 42.667 42.667 42.667h554.667zM853.333 405.333c23.565 0 42.667-19.102 42.667-42.667s-19.102-42.667-42.667-42.667h-725.333c-23.564 0-42.667 19.102-42.667 42.667s19.103 42.667 42.667 42.667h725.333zM682.667 576c23.565 0 42.667-19.103 42.667-42.667s-19.102-42.667-42.667-42.667h-554.667c-23.564 0-42.667 19.102-42.667 42.667s19.103 42.667 42.667 42.667h554.667zM853.333 746.667c23.565 0 42.667-19.103 42.667-42.667s-19.102-42.667-42.667-42.667h-725.333c-23.564 0-42.667 19.103-42.667 42.667s19.103 42.667 42.667 42.667h725.333z" />
<glyph unicode="&#xe917;" glyph-name="align-right-01" d="M853.333 64v768c0 23.564 19.102 42.667 42.667 42.667s42.667-19.103 42.667-42.667v-768c0-23.565-19.102-42.667-42.667-42.667s-42.667 19.102-42.667 42.667zM396.5 776.833c16.662 16.663 43.671 16.663 60.332 0l298.667-298.668c8.004-8 12.501-18.85 12.501-30.165s-4.497-22.165-12.501-30.165l-298.667-298.667c-16.661-16.666-43.67-16.666-60.332 0-16.663 16.661-16.663 43.669 0 60.331l225.832 225.835h-494.332c-23.564 0-42.667 19.102-42.667 42.667s19.103 42.667 42.667 42.667h494.332l-225.832 225.833c-16.663 16.662-16.663 43.671 0 60.333z" />
<glyph unicode="&#xe918;" glyph-name="align-right-02" d="M853.333 234.667c0 20.463-0.017 33.681-0.708 43.793-0.666 9.724-1.805 13.431-2.543 15.206-4.331 10.449-12.634 18.752-23.083 23.083-1.775 0.738-5.483 1.877-15.206 2.543-10.112 0.691-23.33 0.708-43.793 0.708h-512c-20.464 0-33.681-0.017-43.792-0.708-9.724-0.666-13.433-1.805-15.208-2.543-10.45-4.331-18.753-12.634-23.084-23.083-0.735-1.775-1.878-5.483-2.542-15.206-0.69-10.112-0.708-23.33-0.708-43.793s0.018-33.681 0.708-43.793c0.664-9.724 1.807-13.431 2.542-15.206 4.33-10.449 12.633-18.752 23.084-23.083 1.775-0.738 5.484-1.877 15.208-2.543 10.111-0.691 23.328-0.708 43.792-0.708h512c20.463 0 33.681 0.017 43.793 0.708 9.724 0.666 13.431 1.805 15.206 2.543 10.449 4.331 18.752 12.634 23.083 23.083 0.738 1.775 1.877 5.483 2.543 15.206 0.691 10.112 0.708 23.33 0.708 43.793zM853.333 661.333c0 20.464-0.017 33.681-0.708 43.792-0.666 9.724-1.805 13.433-2.543 15.208-4.331 10.45-12.634 18.753-23.083 23.084-1.775 0.735-5.483 1.878-15.206 2.542-10.112 0.69-23.33 0.708-43.793 0.708h-341.333c-20.464 0-33.681-0.018-43.792-0.708-9.724-0.664-13.433-1.807-15.208-2.542-10.45-4.33-18.753-12.633-23.084-23.084-0.735-1.775-1.878-5.484-2.542-15.208-0.69-10.111-0.708-23.328-0.708-43.792s0.018-33.681 0.708-43.792c0.664-9.724 1.807-13.433 2.542-15.208 4.33-10.45 12.633-18.753 23.084-23.084 1.775-0.735 5.484-1.878 15.208-2.542 10.111-0.69 23.328-0.708 43.792-0.708h341.333c20.463 0 33.681 0.018 43.793 0.708 9.724 0.664 13.431 1.807 15.206 2.542 10.449 4.33 18.752 12.633 23.083 23.084 0.738 1.775 1.877 5.484 2.543 15.208 0.691 10.111 0.708 23.328 0.708 43.792zM938.667 234.667c0-19.29 0.017-35.895-0.917-49.583-0.96-14.071-3.072-28.177-8.832-42.082-12.992-31.351-37.901-56.26-69.252-69.252-13.905-5.76-28.011-7.872-42.082-8.832-13.687-0.934-30.293-0.917-49.583-0.917h-512c-19.291 0-35.896-0.017-49.583 0.917-14.073 0.96-28.177 3.072-42.083 8.832-31.35 12.992-56.259 37.901-69.25 69.252-5.76 13.905-7.873 28.011-8.834 42.082-0.933 13.687-0.916 30.293-0.916 49.583s-0.017 35.895 0.916 49.583c0.96 14.071 3.073 28.177 8.834 42.082 12.991 31.351 37.9 56.26 69.25 69.252 13.906 5.76 28.011 7.872 42.083 8.832 13.687 0.934 30.292 0.917 49.583 0.917h512c19.29 0 35.895 0.017 49.583-0.917 14.071-0.96 28.177-3.072 42.082-8.832 31.351-12.992 56.26-37.901 69.252-69.252 5.76-13.905 7.872-28.011 8.832-42.082 0.934-13.687 0.917-30.293 0.917-49.583zM938.667 661.333c0-19.291 0.017-35.896-0.917-49.583-0.96-14.073-3.072-28.177-8.832-42.083-12.992-31.35-37.901-56.259-69.252-69.251-13.905-5.76-28.011-7.872-42.082-8.832-13.687-0.934-30.293-0.917-49.583-0.917h-341.333c-19.291 0-35.896-0.017-49.583 0.917-14.073 0.96-28.177 3.072-42.083 8.832-31.35 12.992-56.259 37.9-69.25 69.251-5.76 13.906-7.873 28.011-8.834 42.083-0.933 13.687-0.916 30.292-0.916 49.583s-0.017 35.896 0.916 49.583c0.96 14.073 3.073 28.177 8.834 42.083 12.991 31.35 37.9 56.259 69.25 69.25 13.906 5.76 28.011 7.873 42.083 8.834 13.687 0.933 30.292 0.916 49.583 0.916h341.333c19.29 0 35.895 0.017 49.583-0.916 14.071-0.96 28.177-3.073 42.082-8.834 31.351-12.991 56.26-37.9 69.252-69.25 5.76-13.906 7.872-28.011 8.832-42.083 0.934-13.687 0.917-30.292 0.917-49.583z" />
<glyph unicode="&#xe919;" glyph-name="align-right" d="M896 234.667c23.565 0 42.667-19.102 42.667-42.667s-19.102-42.667-42.667-42.667h-554.667c-23.564 0-42.667 19.102-42.667 42.667s19.103 42.667 42.667 42.667h554.667zM896 405.333c23.565 0 42.667-19.102 42.667-42.667s-19.102-42.667-42.667-42.667h-725.333c-23.564 0-42.667 19.102-42.667 42.667s19.103 42.667 42.667 42.667h725.333zM896 576c23.565 0 42.667-19.103 42.667-42.667s-19.102-42.667-42.667-42.667h-554.667c-23.564 0-42.667 19.102-42.667 42.667s19.103 42.667 42.667 42.667h554.667zM896 746.667c23.565 0 42.667-19.103 42.667-42.667s-19.102-42.667-42.667-42.667h-725.333c-23.564 0-42.667 19.103-42.667 42.667s19.103 42.667 42.667 42.667h725.333z" />
<glyph unicode="&#xe91a;" glyph-name="align-top-01" d="M469.333 64v494.333l-225.833-225.832c-16.662-16.666-43.671-16.666-60.333 0-16.663 16.661-16.663 43.669 0 60.331l298.668 298.668 3.247 2.917c16.759 13.668 41.463 12.704 57.084-2.917l298.667-298.668c16.666-16.661 16.666-43.669 0-60.331-16.661-16.666-43.669-16.666-60.331 0l-225.835 225.832v-494.333c0-23.565-19.102-42.667-42.667-42.667s-42.667 19.102-42.667 42.667zM896 874.667c23.565 0 42.667-19.103 42.667-42.667s-19.102-42.667-42.667-42.667h-768c-23.564 0-42.667 19.103-42.667 42.667s19.103 42.667 42.667 42.667h768z" />
<glyph unicode="&#xe91b;" glyph-name="align-top-02" d="M384 704c0 20.464-0.018 33.681-0.708 43.792-0.664 9.724-1.807 13.433-2.542 15.208-4.33 10.45-12.633 18.753-23.084 23.084-1.775 0.735-5.484 1.878-15.208 2.542-10.111 0.69-23.328 0.708-43.792 0.708s-33.681-0.018-43.792-0.708c-9.724-0.664-13.433-1.807-15.208-2.542-10.45-4.33-18.753-12.633-23.084-23.084-0.735-1.775-1.878-5.484-2.542-15.208-0.69-10.111-0.708-23.328-0.708-43.792v-512c0-20.463 0.018-33.681 0.708-43.793 0.664-9.724 1.807-13.431 2.542-15.206 4.33-10.449 12.633-18.752 23.084-23.083 1.775-0.738 5.484-1.877 15.208-2.543 10.111-0.691 23.328-0.708 43.792-0.708s33.681 0.017 43.792 0.708c9.724 0.666 13.433 1.805 15.208 2.543 10.45 4.331 18.753 12.634 23.084 23.083 0.735 1.775 1.878 5.483 2.542 15.206 0.69 10.112 0.708 23.33 0.708 43.793v512zM810.667 704c0 20.464-0.017 33.681-0.708 43.792-0.666 9.724-1.805 13.433-2.543 15.208-4.331 10.45-12.634 18.753-23.083 23.084-1.775 0.735-5.483 1.878-15.206 2.542-10.112 0.69-23.33 0.708-43.793 0.708s-33.681-0.018-43.793-0.708c-9.724-0.664-13.431-1.807-15.206-2.542-10.449-4.33-18.752-12.633-23.083-23.084-0.738-1.775-1.877-5.484-2.543-15.208-0.691-10.111-0.708-23.328-0.708-43.792v-341.333c0-20.463 0.017-33.681 0.708-43.793 0.666-9.724 1.805-13.431 2.543-15.206 4.331-10.449 12.634-18.752 23.083-23.083 1.775-0.738 5.483-1.877 15.206-2.543 10.112-0.691 23.33-0.708 43.793-0.708s33.681 0.017 43.793 0.708c9.724 0.666 13.431 1.805 15.206 2.543 10.449 4.331 18.752 12.634 23.083 23.083 0.738 1.775 1.877 5.483 2.543 15.206 0.691 10.112 0.708 23.33 0.708 43.793v341.333zM469.333 192c0-19.29 0.017-35.895-0.917-49.583-0.96-14.071-3.072-28.177-8.832-42.082-12.992-31.351-37.9-56.26-69.251-69.252-13.906-5.76-28.011-7.872-42.083-8.832-13.687-0.934-30.292-0.917-49.583-0.917s-35.896-0.017-49.583 0.917c-14.073 0.96-28.177 3.072-42.083 8.832-31.35 12.992-56.259 37.901-69.25 69.252-5.76 13.905-7.873 28.011-8.834 42.082-0.933 13.687-0.916 30.293-0.916 49.583v512c0 19.291-0.017 35.896 0.916 49.583 0.96 14.073 3.073 28.177 8.834 42.083 12.991 31.35 37.9 56.259 69.25 69.25 13.906 5.76 28.011 7.873 42.083 8.834 13.687 0.933 30.292 0.916 49.583 0.916s35.896 0.017 49.583-0.916c14.073-0.96 28.177-3.073 42.083-8.834 31.35-12.991 56.259-37.9 69.251-69.25 5.76-13.906 7.872-28.011 8.832-42.083 0.934-13.687 0.917-30.292 0.917-49.583v-512zM896 362.667c0-19.29 0.017-35.895-0.917-49.583-0.96-14.071-3.072-28.177-8.832-42.082-12.992-31.351-37.901-56.26-69.252-69.252-13.905-5.76-28.011-7.872-42.082-8.832-13.687-0.934-30.293-0.917-49.583-0.917s-35.895-0.017-49.583 0.917c-14.071 0.96-28.177 3.072-42.082 8.832-31.351 12.992-56.26 37.901-69.252 69.252-5.76 13.905-7.872 28.011-8.832 42.082-0.934 13.687-0.917 30.293-0.917 49.583v341.333c0 19.291-0.017 35.896 0.917 49.583 0.96 14.073 3.072 28.177 8.832 42.083 12.992 31.35 37.901 56.259 69.252 69.25 13.905 5.76 28.011 7.873 42.082 8.834 13.687 0.933 30.293 0.916 49.583 0.916s35.895 0.017 49.583-0.916c14.071-0.96 28.177-3.073 42.082-8.834 31.351-12.991 56.26-37.9 69.252-69.25 5.76-13.906 7.872-28.011 8.832-42.083 0.934-13.687 0.917-30.292 0.917-49.583v-341.333z" />
<glyph unicode="&#xe91c;" glyph-name="align-vertical-center-01" d="M469.333 21.333v174.332l-97.833-97.83c-16.662-16.666-43.671-16.666-60.333 0-16.663 16.661-16.663 43.669 0 60.331l170.668 170.667 3.247 2.918c16.759 13.666 41.463 12.702 57.084-2.918l170.667-170.667c16.666-16.661 16.666-43.669 0-60.331-16.661-16.666-43.669-16.666-60.331 0l-97.835 97.83v-174.332c0-23.565-19.102-42.667-42.667-42.667s-42.667 19.102-42.667 42.667zM896 490.667c23.565 0 42.667-19.102 42.667-42.667s-19.102-42.667-42.667-42.667h-768c-23.564 0-42.667 19.102-42.667 42.667s19.103 42.667 42.667 42.667h768zM469.333 874.667c0 23.564 19.102 42.667 42.667 42.667s42.667-19.103 42.667-42.667v-174.333l97.835 97.833c16.661 16.663 43.669 16.663 60.331 0 16.666-16.662 16.666-43.671 0-60.333l-170.667-170.667c-16.661-16.663-43.669-16.663-60.331 0l-170.668 170.667c-16.663 16.662-16.663 43.671 0 60.333s43.671 16.663 60.333 0l97.833-97.833v174.333z" />
<glyph unicode="&#xe91d;" glyph-name="align-vertical-center-02" d="M384 704c0 20.464-0.018 33.681-0.708 43.792-0.664 9.724-1.807 13.433-2.542 15.208-4.33 10.45-12.633 18.753-23.084 23.084-1.775 0.735-5.484 1.878-15.208 2.542-10.111 0.69-23.328 0.708-43.792 0.708s-33.681-0.018-43.792-0.708c-9.724-0.664-13.433-1.807-15.208-2.542-10.45-4.33-18.753-12.633-23.084-23.084-0.735-1.775-1.878-5.484-2.542-15.208-0.69-10.111-0.708-23.328-0.708-43.792v-512c0-20.463 0.018-33.681 0.708-43.793 0.664-9.724 1.807-13.431 2.542-15.206 4.33-10.449 12.633-18.752 23.084-23.083 1.775-0.738 5.484-1.877 15.208-2.543 10.111-0.691 23.328-0.708 43.792-0.708s33.681 0.017 43.792 0.708c9.724 0.666 13.433 1.805 15.208 2.543 10.45 4.331 18.753 12.634 23.084 23.083 0.735 1.775 1.878 5.483 2.542 15.206 0.69 10.112 0.708 23.33 0.708 43.793v512zM810.667 618.667c0 20.464-0.017 33.681-0.708 43.792-0.666 9.724-1.805 13.433-2.543 15.208-4.331 10.45-12.634 18.753-23.083 23.084-1.775 0.735-5.483 1.878-15.206 2.542-10.112 0.69-23.33 0.708-43.793 0.708s-33.681-0.018-43.793-0.708c-9.724-0.664-13.431-1.807-15.206-2.542-10.449-4.33-18.752-12.633-23.083-23.084-0.738-1.775-1.877-5.484-2.543-15.208-0.691-10.111-0.708-23.328-0.708-43.792v-341.333c0-20.463 0.017-33.681 0.708-43.793 0.666-9.724 1.805-13.431 2.543-15.206 4.331-10.449 12.634-18.752 23.083-23.083 1.775-0.738 5.483-1.877 15.206-2.543 10.112-0.691 23.33-0.708 43.793-0.708s33.681 0.017 43.793 0.708c9.724 0.666 13.431 1.805 15.206 2.543 10.449 4.331 18.752 12.634 23.083 23.083 0.738 1.775 1.877 5.483 2.543 15.206 0.691 10.112 0.708 23.33 0.708 43.793v341.333zM896 277.333c0-19.29 0.017-35.895-0.917-49.583-0.96-14.071-3.072-28.177-8.832-42.082-12.992-31.351-37.901-56.26-69.252-69.252-13.905-5.76-28.011-7.872-42.082-8.832-13.687-0.934-30.293-0.917-49.583-0.917s-35.895-0.017-49.583 0.917c-14.071 0.96-28.177 3.072-42.082 8.832-31.351 12.992-56.26 37.901-69.252 69.252-5.76 13.905-7.872 28.011-8.832 42.082-0.934 13.687-0.917 30.293-0.917 49.583v341.333c0 19.291-0.017 35.896 0.917 49.583 0.96 14.073 3.072 28.177 8.832 42.083 12.992 31.35 37.901 56.259 69.252 69.25 13.905 5.76 28.011 7.873 42.082 8.834 13.687 0.933 30.293 0.916 49.583 0.916s35.895 0.017 49.583-0.916c14.071-0.96 28.177-3.073 42.082-8.834 31.351-12.991 56.26-37.9 69.252-69.25 5.76-13.906 7.872-28.011 8.832-42.083 0.934-13.687 0.917-30.292 0.917-49.583v-341.333zM469.333 192c0-19.29 0.017-35.895-0.917-49.583-0.96-14.071-3.072-28.177-8.832-42.082-12.992-31.351-37.9-56.26-69.251-69.252-13.906-5.76-28.011-7.872-42.083-8.832-13.687-0.934-30.292-0.917-49.583-0.917s-35.896-0.017-49.583 0.917c-14.073 0.96-28.177 3.072-42.083 8.832-31.35 12.992-56.259 37.901-69.25 69.252-5.76 13.905-7.873 28.011-8.834 42.082-0.933 13.687-0.916 30.293-0.916 49.583v512c0 19.291-0.017 35.896 0.916 49.583 0.96 14.073 3.073 28.177 8.834 42.083 12.991 31.35 37.9 56.259 69.25 69.25 13.906 5.76 28.011 7.873 42.083 8.834 13.687 0.933 30.292 0.916 49.583 0.916s35.896 0.017 49.583-0.916c14.073-0.96 28.177-3.073 42.083-8.834 31.35-12.991 56.259-37.9 69.251-69.25 5.76-13.906 7.872-28.011 8.832-42.083 0.934-13.687 0.917-30.292 0.917-49.583v-512z" />
<glyph unicode="&#xe91e;" glyph-name="anchor" d="M597.333 746.667c0 47.128-38.204 85.333-85.333 85.333s-85.333-38.205-85.333-85.333c0-47.128 38.204-85.333 85.333-85.333s85.333 38.205 85.333 85.333zM682.667 746.667c0-79.524-54.391-146.346-128-165.292v-514.875c86.14 9.63 166.993 48.077 228.877 109.956 61.879 61.884 100.369 142.737 109.999 228.877h-82.876c-23.565 0-42.667 19.102-42.667 42.667s19.102 42.667 42.667 42.667h128c23.565 0 42.667-19.102 42.667-42.667 0-124.476-49.442-243.857-137.459-331.874s-207.398-137.459-331.874-137.459c-124.475 0-243.858 49.442-331.875 137.459s-137.458 207.398-137.458 331.874c0 11.315 4.498 22.165 12.5 30.165 8.002 8.004 18.851 12.501 30.167 12.501h128c23.564 0 42.667-19.102 42.667-42.667s-19.103-42.667-42.667-42.667h-82.875c9.63-86.14 48.117-166.993 110-228.877 61.882-61.879 142.735-100.326 228.875-109.956v514.875c-73.61 18.946-128 85.768-128 165.292 0 94.257 76.41 170.667 170.667 170.667 94.255 0 170.667-76.41 170.667-170.667z" />
<glyph unicode="&#xe91f;" glyph-name="annotation-alert" d="M853.333 627.208c0 36.539-0.013 61.382-1.583 80.584-1.527 18.705-4.309 28.285-7.71 34.958-8.179 16.053-21.235 29.111-37.291 37.292-6.673 3.4-16.252 6.18-34.957 7.709-19.204 1.568-44.045 1.583-80.585 1.583h-358.417c-36.539 0-61.382-0.015-80.584-1.583-18.705-1.528-28.285-4.308-34.958-7.709-16.053-8.18-29.111-21.238-37.292-37.292-3.4-6.673-6.18-16.253-7.709-34.958-1.568-19.202-1.583-44.044-1.583-80.584v-243.208c0-30.4 0.029-51.063 1.125-67.123 1.070-15.68 3.016-23.846 5.375-29.542 8.66-20.902 25.266-37.508 46.167-46.17 5.696-2.359 13.863-4.305 29.542-5.372 16.061-1.097 36.725-1.126 67.125-1.126 18.799 0 35.109 0.277 50.75-3.418 19.329-4.565 37.332-13.568 52.583-26.291 12.336-10.295 21.932-23.505 33.208-38.541l55.458-73.958 55.458 73.958c11.277 15.036 20.873 28.245 33.207 38.541 15.253 12.723 33.254 21.726 52.582 26.291 15.642 3.695 31.953 3.418 50.752 3.418 30.4 0 51.063 0.030 67.123 1.126 15.68 1.067 23.846 3.012 29.542 5.372 20.902 8.661 37.508 25.267 46.17 46.17 2.359 5.696 4.305 13.862 5.372 29.542 1.097 16.060 1.126 36.723 1.126 67.123v243.208zM512.418 405.333c23.565 0 42.667-19.102 42.667-42.667s-19.102-42.667-42.667-42.667h-0.418c-23.565 0-42.667 19.102-42.667 42.667s19.102 42.667 42.667 42.667h0.418zM469.333 512v149.333c0 23.564 19.102 42.667 42.667 42.667s42.667-19.103 42.667-42.667v-149.333c0-23.565-19.102-42.667-42.667-42.667s-42.667 19.102-42.667 42.667zM938.667 384c0-29.235 0.009-53.321-1.331-72.96-1.37-20.011-4.292-38.515-11.669-56.333-17.323-41.818-50.556-75.051-92.373-92.373-17.818-7.377-36.322-10.3-56.333-11.669-19.639-1.34-43.725-1.331-72.96-1.331-22.865 0-27.43-0.256-31.125-1.126-6.447-1.519-12.454-4.548-17.54-8.789-2.918-2.436-5.858-5.909-19.584-24.209l-62.293-83.085c-4.151-5.534-8.947-11.972-13.542-17.084-4.774-5.308-12.736-13.133-24.708-17.792-14.921-5.803-31.492-5.803-46.413 0-11.972 4.659-19.934 12.484-24.708 17.792-4.595 5.111-9.391 11.55-13.542 17.084l-62.293 83.085c-13.726 18.3-16.666 21.773-19.583 24.209-5.085 4.241-11.095 7.27-17.542 8.789-3.696 0.87-8.261 1.126-31.125 1.126-29.236 0-53.319-0.009-72.958 1.331-20.010 1.37-38.516 4.292-56.333 11.669-41.818 17.323-75.053 50.556-92.375 92.373-7.377 17.818-10.3 36.322-11.667 56.333-1.34 19.639-1.333 43.725-1.333 72.96v243.208c0 35.136-0.044 64.059 1.875 87.542 1.96 23.981 6.158 46.044 16.708 66.75 16.361 32.107 42.476 58.222 74.583 74.583 20.706 10.551 42.769 14.749 66.75 16.708 23.483 1.919 52.406 1.875 87.542 1.875h358.417c35.136 0 64.060 0.044 87.543-1.875 23.979-1.96 46.042-6.158 66.748-16.708 32.107-16.361 58.223-42.476 74.586-74.583 10.547-20.706 14.746-42.769 16.708-66.75 1.916-23.483 1.873-52.406 1.873-87.542v-243.208z" />
<glyph unicode="&#xe920;" glyph-name="annotation-check" d="M853.333 627.208c0 36.539-0.013 61.382-1.583 80.584-1.527 18.705-4.309 28.285-7.71 34.958-8.179 16.053-21.235 29.111-37.291 37.292-6.673 3.4-16.252 6.18-34.957 7.709-19.204 1.568-44.045 1.583-80.585 1.583h-358.417c-36.539 0-61.382-0.015-80.584-1.583-18.705-1.528-28.285-4.308-34.958-7.709-16.053-8.18-29.111-21.238-37.292-37.292-3.4-6.673-6.18-16.253-7.709-34.958-1.568-19.202-1.583-44.044-1.583-80.584v-243.208c0-30.4 0.029-51.063 1.125-67.123 1.070-15.68 3.016-23.846 5.375-29.542 8.66-20.902 25.266-37.508 46.167-46.17 5.696-2.359 13.863-4.305 29.542-5.372 16.061-1.097 36.725-1.126 67.125-1.126 18.799 0 35.109 0.277 50.75-3.418 19.329-4.565 37.332-13.568 52.583-26.291 12.336-10.295 21.932-23.505 33.208-38.541l55.458-73.958 55.458 73.958c11.277 15.036 20.873 28.245 33.207 38.541 15.253 12.723 33.254 21.726 52.582 26.291 15.642 3.695 31.953 3.418 50.752 3.418 30.4 0 51.063 0.030 67.123 1.126 15.68 1.067 23.846 3.012 29.542 5.372 20.902 8.661 37.508 25.267 46.17 46.17 2.359 5.696 4.305 13.862 5.372 29.542 1.097 16.060 1.126 36.723 1.126 67.123v243.208zM631.168 627.5c16.661 16.662 43.669 16.662 60.331 0 16.666-16.662 16.666-43.671 0-60.333l-192-191.999c-16.661-16.666-43.669-16.666-60.331 0l-85.335 85.333c-16.662 16.661-16.662 43.669 0 60.331s43.671 16.663 60.333 0l55.167-55.164 161.835 161.832zM938.667 384c0-29.235 0.009-53.321-1.331-72.96-1.37-20.011-4.292-38.515-11.669-56.333-17.323-41.818-50.556-75.051-92.373-92.373-17.818-7.377-36.322-10.3-56.333-11.669-19.639-1.34-43.725-1.331-72.96-1.331-22.865 0-27.43-0.256-31.125-1.126-6.447-1.519-12.454-4.548-17.54-8.789-2.918-2.436-5.858-5.909-19.584-24.209l-62.293-83.085c-4.151-5.534-8.947-11.972-13.542-17.084-4.774-5.308-12.736-13.133-24.708-17.792-14.921-5.803-31.492-5.803-46.413 0-11.972 4.659-19.934 12.484-24.708 17.792-4.595 5.111-9.391 11.55-13.542 17.084l-62.293 83.085c-13.726 18.3-16.666 21.773-19.583 24.209-5.085 4.241-11.095 7.27-17.542 8.789-3.696 0.87-8.261 1.126-31.125 1.126-29.236 0-53.319-0.009-72.958 1.331-20.010 1.37-38.516 4.292-56.333 11.669-41.818 17.323-75.053 50.556-92.375 92.373-7.377 17.818-10.3 36.322-11.667 56.333-1.34 19.639-1.333 43.725-1.333 72.96v243.208c0 35.136-0.044 64.059 1.875 87.542 1.96 23.981 6.158 46.044 16.708 66.75 16.361 32.107 42.476 58.222 74.583 74.583 20.706 10.551 42.769 14.749 66.75 16.708 23.483 1.919 52.406 1.875 87.542 1.875h358.417c35.136 0 64.060 0.044 87.543-1.875 23.979-1.96 46.042-6.158 66.748-16.708 32.107-16.361 58.223-42.476 74.586-74.583 10.547-20.706 14.746-42.769 16.708-66.75 1.916-23.483 1.873-52.406 1.873-87.542v-243.208z" />
<glyph unicode="&#xe921;" glyph-name="annotation-dots" d="M853.333 627.208c0 36.539-0.013 61.382-1.583 80.584-1.527 18.705-4.309 28.285-7.71 34.958-8.179 16.053-21.235 29.111-37.291 37.292-6.673 3.4-16.252 6.18-34.957 7.709-19.204 1.568-44.045 1.583-80.585 1.583h-358.417c-36.539 0-61.382-0.015-80.584-1.583-18.705-1.528-28.285-4.308-34.958-7.709-16.053-8.18-29.111-21.238-37.292-37.292-3.4-6.673-6.18-16.253-7.709-34.958-1.568-19.202-1.583-44.044-1.583-80.584v-243.208c0-30.4 0.029-51.063 1.125-67.123 1.070-15.68 3.016-23.846 5.375-29.542 8.66-20.902 25.266-37.508 46.167-46.17 5.696-2.359 13.863-4.305 29.542-5.372 16.061-1.097 36.725-1.126 67.125-1.126 18.799 0 35.109 0.277 50.75-3.418 19.329-4.565 37.332-13.568 52.583-26.291 12.336-10.295 21.932-23.505 33.208-38.541l55.458-73.958 55.458 73.958c11.277 15.036 20.873 28.245 33.207 38.541 15.253 12.723 33.254 21.726 52.582 26.291 15.642 3.695 31.953 3.418 50.752 3.418 30.4 0 51.063 0.030 67.123 1.126 15.68 1.067 23.846 3.012 29.542 5.372 20.902 8.661 37.508 25.267 46.17 46.17 2.359 5.696 4.305 13.862 5.372 29.542 1.097 16.060 1.126 36.723 1.126 67.123v243.208zM320 576c35.346 0 64-28.654 64-64s-28.654-64-64-64-64 28.655-64 64c0 35.346 28.654 64 64 64zM512 576c35.345 0 64-28.654 64-64s-28.655-64-64-64-64 28.655-64 64c0 35.346 28.655 64 64 64zM704 576c35.345 0 64-28.654 64-64s-28.655-64-64-64-64 28.655-64 64c0 35.346 28.655 64 64 64zM938.667 384c0-29.235 0.009-53.321-1.331-72.96-1.37-20.011-4.292-38.515-11.669-56.333-17.323-41.818-50.556-75.051-92.373-92.373-17.818-7.377-36.322-10.3-56.333-11.669-19.639-1.34-43.725-1.331-72.96-1.331-22.865 0-27.43-0.256-31.125-1.126-6.447-1.519-12.454-4.548-17.54-8.789-2.918-2.436-5.858-5.909-19.584-24.209l-62.293-83.085c-4.151-5.534-8.947-11.972-13.542-17.084-4.774-5.308-12.736-13.133-24.708-17.792-14.921-5.803-31.492-5.803-46.413 0-11.972 4.659-19.934 12.484-24.708 17.792-4.595 5.111-9.391 11.55-13.542 17.084l-62.293 83.085c-13.726 18.3-16.666 21.773-19.583 24.209-5.085 4.241-11.095 7.27-17.542 8.789-3.696 0.87-8.261 1.126-31.125 1.126-29.236 0-53.319-0.009-72.958 1.331-20.010 1.37-38.516 4.292-56.333 11.669-41.818 17.323-75.053 50.556-92.375 92.373-7.377 17.818-10.3 36.322-11.667 56.333-1.34 19.639-1.333 43.725-1.333 72.96v243.208c0 35.136-0.044 64.059 1.875 87.542 1.96 23.981 6.158 46.044 16.708 66.75 16.361 32.107 42.476 58.222 74.583 74.583 20.706 10.551 42.769 14.749 66.75 16.708 23.483 1.919 52.406 1.875 87.542 1.875h358.417c35.136 0 64.060 0.044 87.543-1.875 23.979-1.96 46.042-6.158 66.748-16.708 32.107-16.361 58.223-42.476 74.586-74.583 10.547-20.706 14.746-42.769 16.708-66.75 1.916-23.483 1.873-52.406 1.873-87.542v-243.208z" />
<glyph unicode="&#xe922;" glyph-name="annotation-heart" d="M853.333 627.208c0 36.539-0.013 61.382-1.583 80.584-1.527 18.705-4.309 28.285-7.71 34.958-8.179 16.053-21.235 29.111-37.291 37.292-6.673 3.4-16.252 6.18-34.957 7.709-19.204 1.568-44.045 1.583-80.585 1.583h-358.417c-36.539 0-61.382-0.015-80.584-1.583-18.705-1.528-28.285-4.308-34.958-7.709-16.053-8.18-29.111-21.238-37.292-37.292-3.4-6.673-6.18-16.253-7.709-34.958-1.568-19.202-1.583-44.044-1.583-80.584v-243.208c0-30.4 0.029-51.063 1.125-67.123 1.070-15.68 3.016-23.846 5.375-29.542 8.66-20.902 25.266-37.508 46.167-46.17 5.696-2.359 13.863-4.305 29.542-5.372 16.061-1.097 36.725-1.126 67.125-1.126 18.799 0 35.109 0.277 50.75-3.418 19.329-4.565 37.332-13.568 52.583-26.291 12.336-10.295 21.932-23.505 33.208-38.541l55.458-73.958 55.458 73.958c11.277 15.036 20.873 28.245 33.207 38.541 15.253 12.723 33.254 21.726 52.582 26.291 15.642 3.695 31.953 3.418 50.752 3.418 30.4 0 51.063 0.030 67.123 1.126 15.68 1.067 23.846 3.012 29.542 5.372 20.902 8.661 37.508 25.267 46.17 46.17 2.359 5.696 4.305 13.862 5.372 29.542 1.097 16.060 1.126 36.723 1.126 67.123v243.208zM350.833 651.083c50.682 42.101 113.828 39.089 161.043 9 47.117 30.046 109.645 32.525 160.58-8.625 62.037-50.129 69.709-136.702 21.709-196.751-22.758-28.463-74.807-75.857-110.251-107.247-11.917-10.56-27.409-25.549-47.625-31.586-15.684-4.681-33.105-4.676-48.789 0-20.22 6.033-35.746 21.022-47.667 31.586-35.445 31.394-87.497 78.788-110.25 107.247-48.389 60.54-39.011 146.313 21.25 196.376zM479.834 576.375c-21.436 24.357-52.318 27.465-74.458 9.083-25.239-20.966-27.883-53.994-9.125-77.46 17.187-21.495 62.899-63.659 100.168-96.666 8.009-7.095 12.164-10.705 15.33-13.082 0.043-0.030 0.090-0.055 0.128-0.085 0.038 0.030 0.081 0.055 0.124 0.085 3.17 2.377 7.322 5.986 15.334 13.082 37.274 33.015 83.025 75.174 100.207 96.666 19.149 23.957 16.23 56.933-8.708 77.085-23.317 18.836-53.798 15.297-74.918-8.708l-32.038 28.208-32.043-28.208zM543.915 576.375c-8.098-9.206-19.776-14.5-32.038-14.5-12.262 0.003-23.945 5.295-32.043 14.5l32.043 28.166 32.038-28.166zM938.667 384c0-29.235 0.009-53.321-1.331-72.96-1.37-20.011-4.292-38.515-11.669-56.333-17.323-41.818-50.556-75.051-92.373-92.373-17.818-7.377-36.322-10.3-56.333-11.669-19.639-1.34-43.725-1.331-72.96-1.331-22.865 0-27.43-0.256-31.125-1.126-6.447-1.519-12.454-4.548-17.54-8.789-2.918-2.436-5.858-5.909-19.584-24.209l-62.293-83.085c-4.151-5.534-8.947-11.972-13.542-17.084-4.774-5.308-12.736-13.133-24.708-17.792-14.921-5.803-31.492-5.803-46.413 0-11.972 4.659-19.934 12.484-24.708 17.792-4.595 5.111-9.391 11.55-13.542 17.084l-62.293 83.085c-13.726 18.3-16.666 21.773-19.583 24.209-5.085 4.241-11.095 7.27-17.542 8.789-3.696 0.87-8.261 1.126-31.125 1.126-29.236 0-53.319-0.009-72.958 1.331-20.010 1.37-38.516 4.292-56.333 11.669-41.818 17.323-75.053 50.556-92.375 92.373-7.377 17.818-10.3 36.322-11.667 56.333-1.34 19.639-1.333 43.725-1.333 72.96v243.208c0 35.136-0.044 64.059 1.875 87.542 1.96 23.981 6.158 46.044 16.708 66.75 16.361 32.107 42.476 58.222 74.583 74.583 20.706 10.551 42.769 14.749 66.75 16.708 23.483 1.919 52.406 1.875 87.542 1.875h358.417c35.136 0 64.060 0.044 87.543-1.875 23.979-1.96 46.042-6.158 66.748-16.708 32.107-16.361 58.223-42.476 74.586-74.583 10.547-20.706 14.746-42.769 16.708-66.75 1.916-23.483 1.873-52.406 1.873-87.542v-243.208z" />
<glyph unicode="&#xe923;" glyph-name="annotation-info" d="M853.333 627.208c0 36.539-0.013 61.382-1.583 80.584-1.527 18.705-4.309 28.285-7.71 34.958-8.179 16.053-21.235 29.111-37.291 37.292-6.673 3.4-16.252 6.18-34.957 7.709-19.204 1.568-44.045 1.583-80.585 1.583h-358.417c-36.539 0-61.382-0.015-80.584-1.583-18.705-1.528-28.285-4.308-34.958-7.709-16.053-8.18-29.111-21.238-37.292-37.292-3.4-6.673-6.18-16.253-7.709-34.958-1.568-19.202-1.583-44.044-1.583-80.584v-243.208c0-30.4 0.029-51.063 1.125-67.123 1.070-15.68 3.016-23.846 5.375-29.542 8.66-20.902 25.266-37.508 46.167-46.17 5.696-2.359 13.863-4.305 29.542-5.372 16.061-1.097 36.725-1.126 67.125-1.126 18.799 0 35.109 0.277 50.75-3.418 19.329-4.565 37.332-13.568 52.583-26.291 12.336-10.295 21.932-23.505 33.208-38.541l55.458-73.958 55.458 73.958c11.277 15.036 20.873 28.245 33.207 38.541 15.253 12.723 33.254 21.726 52.582 26.291 15.642 3.695 31.953 3.418 50.752 3.418 30.4 0 51.063 0.030 67.123 1.126 15.68 1.067 23.846 3.012 29.542 5.372 20.902 8.661 37.508 25.267 46.17 46.17 2.359 5.696 4.305 13.862 5.372 29.542 1.097 16.060 1.126 36.723 1.126 67.123v243.208zM469.333 362.667v149.333c0 23.564 19.102 42.667 42.667 42.667s42.667-19.103 42.667-42.667v-149.333c0-23.565-19.102-42.667-42.667-42.667s-42.667 19.102-42.667 42.667zM512.418 704c23.565 0 42.667-19.103 42.667-42.667s-19.102-42.667-42.667-42.667h-0.418c-23.565 0-42.667 19.102-42.667 42.667s19.102 42.667 42.667 42.667h0.418zM938.667 384c0-29.235 0.009-53.321-1.331-72.96-1.37-20.011-4.292-38.515-11.669-56.333-17.323-41.818-50.556-75.051-92.373-92.373-17.818-7.377-36.322-10.3-56.333-11.669-19.639-1.34-43.725-1.331-72.96-1.331-22.865 0-27.43-0.256-31.125-1.126-6.447-1.519-12.454-4.548-17.54-8.789-2.918-2.436-5.858-5.909-19.584-24.209l-62.293-83.085c-4.151-5.534-8.947-11.972-13.542-17.084-4.774-5.308-12.736-13.133-24.708-17.792-14.921-5.803-31.492-5.803-46.413 0-11.972 4.659-19.934 12.484-24.708 17.792-4.595 5.111-9.391 11.55-13.542 17.084l-62.293 83.085c-13.726 18.3-16.666 21.773-19.583 24.209-5.085 4.241-11.095 7.27-17.542 8.789-3.696 0.87-8.261 1.126-31.125 1.126-29.236 0-53.319-0.009-72.958 1.331-20.010 1.37-38.516 4.292-56.333 11.669-41.818 17.323-75.053 50.556-92.375 92.373-7.377 17.818-10.3 36.322-11.667 56.333-1.34 19.639-1.333 43.725-1.333 72.96v243.208c0 35.136-0.044 64.059 1.875 87.542 1.96 23.981 6.158 46.044 16.708 66.75 16.361 32.107 42.476 58.222 74.583 74.583 20.706 10.551 42.769 14.749 66.75 16.708 23.483 1.919 52.406 1.875 87.542 1.875h358.417c35.136 0 64.060 0.044 87.543-1.875 23.979-1.96 46.042-6.158 66.748-16.708 32.107-16.361 58.223-42.476 74.586-74.583 10.547-20.706 14.746-42.769 16.708-66.75 1.916-23.483 1.873-52.406 1.873-87.542v-243.208z" />
<glyph unicode="&#xe924;" glyph-name="annotation-plus" d="M853.333 627.208c0 36.539-0.013 61.382-1.583 80.584-1.527 18.705-4.309 28.285-7.71 34.958-8.179 16.053-21.235 29.111-37.291 37.292-6.673 3.4-16.252 6.18-34.957 7.709-19.204 1.568-44.045 1.583-80.585 1.583h-358.417c-36.539 0-61.382-0.015-80.584-1.583-18.705-1.528-28.285-4.308-34.958-7.709-16.053-8.18-29.111-21.238-37.292-37.292-3.4-6.673-6.18-16.253-7.709-34.958-1.568-19.202-1.583-44.044-1.583-80.584v-243.208c0-30.4 0.029-51.063 1.125-67.123 1.070-15.68 3.016-23.846 5.375-29.542 8.66-20.902 25.266-37.508 46.167-46.17 5.696-2.359 13.863-4.305 29.542-5.372 16.061-1.097 36.725-1.126 67.125-1.126 18.799 0 35.109 0.277 50.75-3.418 19.329-4.565 37.332-13.568 52.583-26.291 12.336-10.295 21.932-23.505 33.208-38.541l55.458-73.958 55.458 73.958c11.277 15.036 20.873 28.245 33.207 38.541 15.253 12.723 33.254 21.726 52.582 26.291 15.642 3.695 31.953 3.418 50.752 3.418 30.4 0 51.063 0.030 67.123 1.126 15.68 1.067 23.846 3.012 29.542 5.372 20.902 8.661 37.508 25.267 46.17 46.17 2.359 5.696 4.305 13.862 5.372 29.542 1.097 16.060 1.126 36.723 1.126 67.123v243.208zM469.333 384v85.333h-85.333c-23.564 0-42.667 19.102-42.667 42.667s19.103 42.667 42.667 42.667h85.333v85.333c0 23.564 19.102 42.667 42.667 42.667s42.667-19.103 42.667-42.667v-85.333h85.333c23.565 0 42.667-19.103 42.667-42.667s-19.102-42.667-42.667-42.667h-85.333v-85.333c0-23.565-19.102-42.667-42.667-42.667s-42.667 19.102-42.667 42.667zM938.667 384c0-29.235 0.009-53.321-1.331-72.96-1.37-20.011-4.292-38.515-11.669-56.333-17.323-41.818-50.556-75.051-92.373-92.373-17.818-7.377-36.322-10.3-56.333-11.669-19.639-1.34-43.725-1.331-72.96-1.331-22.865 0-27.43-0.256-31.125-1.126-6.447-1.519-12.454-4.548-17.54-8.789-2.918-2.436-5.858-5.909-19.584-24.209l-62.293-83.085c-4.151-5.534-8.947-11.972-13.542-17.084-4.774-5.308-12.736-13.133-24.708-17.792-14.921-5.803-31.492-5.803-46.413 0-11.972 4.659-19.934 12.484-24.708 17.792-4.595 5.111-9.391 11.55-13.542 17.084l-62.293 83.085c-13.726 18.3-16.666 21.773-19.583 24.209-5.085 4.241-11.095 7.27-17.542 8.789-3.696 0.87-8.261 1.126-31.125 1.126-29.236 0-53.319-0.009-72.958 1.331-20.010 1.37-38.516 4.292-56.333 11.669-41.818 17.323-75.053 50.556-92.375 92.373-7.377 17.818-10.3 36.322-11.667 56.333-1.34 19.639-1.333 43.725-1.333 72.96v243.208c0 35.136-0.044 64.059 1.875 87.542 1.96 23.981 6.158 46.044 16.708 66.75 16.361 32.107 42.476 58.222 74.583 74.583 20.706 10.551 42.769 14.749 66.75 16.708 23.483 1.919 52.406 1.875 87.542 1.875h358.417c35.136 0 64.060 0.044 87.543-1.875 23.979-1.96 46.042-6.158 66.748-16.708 32.107-16.361 58.223-42.476 74.586-74.583 10.547-20.706 14.746-42.769 16.708-66.75 1.916-23.483 1.873-52.406 1.873-87.542v-243.208z" />
<glyph unicode="&#xe925;" glyph-name="annotation-question" d="M853.333 627.208c0 36.539-0.013 61.382-1.583 80.584-1.527 18.705-4.309 28.285-7.71 34.958-8.179 16.053-21.235 29.111-37.291 37.292-6.673 3.4-16.252 6.18-34.957 7.709-19.204 1.568-44.045 1.583-80.585 1.583h-358.417c-36.539 0-61.382-0.015-80.584-1.583-18.705-1.528-28.285-4.308-34.958-7.709-16.053-8.18-29.111-21.238-37.292-37.292-3.4-6.673-6.18-16.253-7.709-34.958-1.568-19.202-1.583-44.044-1.583-80.584v-243.208c0-30.4 0.029-51.063 1.125-67.123 1.070-15.68 3.016-23.846 5.375-29.542 8.66-20.902 25.266-37.508 46.167-46.17 5.696-2.359 13.863-4.305 29.542-5.372 16.061-1.097 36.725-1.126 67.125-1.126 18.799 0 35.109 0.277 50.75-3.418 19.329-4.565 37.332-13.568 52.583-26.291 12.336-10.295 21.932-23.505 33.208-38.541l55.458-73.958 55.458 73.958c11.277 15.036 20.873 28.245 33.207 38.541 15.253 12.723 33.254 21.726 52.582 26.291 15.642 3.695 31.953 3.418 50.752 3.418 30.4 0 51.063 0.030 67.123 1.126 15.68 1.067 23.846 3.012 29.542 5.372 20.902 8.661 37.508 25.267 46.17 46.17 2.359 5.696 4.305 13.862 5.372 29.542 1.097 16.060 1.126 36.723 1.126 67.123v243.208zM518.835 384c23.556-0.004 42.667-19.106 42.667-42.667s-19.11-42.662-42.667-42.667h-0.418c-23.565 0-42.667 19.102-42.667 42.667s19.102 42.667 42.667 42.667h0.418zM503.543 509.79c0.047 0.017 0.205 0.051 0.414 0.128 0.422 0.149 1.143 0.418 2.125 0.789 2.001 0.764 5.047 1.98 8.751 3.627 7.522 3.345 17.229 8.235 26.624 14.498 21.389 14.263 28.954 27.094 28.958 36.418v0.084c0.017 12.574-4.403 24.755-12.497 34.375-8.102 9.623-19.354 16.082-31.753 18.208-12.395 2.127-25.156-0.21-35.998-6.583s-19.076-16.386-23.249-28.25c-7.821-22.229-32.188-33.903-54.418-26.083-22.222 7.823-33.902 32.191-26.083 54.417 10.861 30.86 32.298 56.877 60.5 73.458 28.215 16.583 61.41 22.656 93.666 17.125 32.26-5.533 61.547-22.293 82.624-47.333 21.065-25.026 32.58-56.707 32.542-89.417l-0.457-10c-4.535-48.929-41.6-80.814-66.5-97.415-14.579-9.719-28.873-16.853-39.334-21.5-5.282-2.351-9.758-4.143-13.001-5.376-1.617-0.619-2.935-1.109-3.917-1.459-0.482-0.171-0.892-0.307-1.207-0.418-0.154-0.051-0.307-0.085-0.414-0.124-0.055-0.017-0.124-0.068-0.166-0.081h-0.085c-22.353-7.454-46.549 4.604-53.999 26.957-6.985 20.949 3.209 43.494 22.916 52.373l3.959 1.583zM938.667 384c0-29.235 0.009-53.321-1.331-72.96-1.37-20.011-4.292-38.515-11.669-56.333-17.323-41.818-50.556-75.051-92.373-92.373-17.818-7.377-36.322-10.3-56.333-11.669-19.639-1.34-43.725-1.331-72.96-1.331-22.865 0-27.43-0.256-31.125-1.126-6.447-1.519-12.454-4.548-17.54-8.789-2.918-2.436-5.858-5.909-19.584-24.209l-62.293-83.085c-4.151-5.534-8.947-11.972-13.542-17.084-4.774-5.308-12.736-13.133-24.708-17.792-14.921-5.803-31.492-5.803-46.413 0-11.972 4.659-19.934 12.484-24.708 17.792-4.595 5.111-9.391 11.55-13.542 17.084l-62.293 83.085c-13.726 18.3-16.666 21.773-19.583 24.209-5.085 4.241-11.095 7.27-17.542 8.789-3.696 0.87-8.261 1.126-31.125 1.126-29.236 0-53.319-0.009-72.958 1.331-20.010 1.37-38.516 4.292-56.333 11.669-41.818 17.323-75.053 50.556-92.375 92.373-7.377 17.818-10.3 36.322-11.667 56.333-1.34 19.639-1.333 43.725-1.333 72.96v243.208c0 35.136-0.044 64.059 1.875 87.542 1.96 23.981 6.158 46.044 16.708 66.75 16.361 32.107 42.476 58.222 74.583 74.583 20.706 10.551 42.769 14.749 66.75 16.708 23.483 1.919 52.406 1.875 87.542 1.875h358.417c35.136 0 64.060 0.044 87.543-1.875 23.979-1.96 46.042-6.158 66.748-16.708 32.107-16.361 58.223-42.476 74.586-74.583 10.547-20.706 14.746-42.769 16.708-66.75 1.916-23.483 1.873-52.406 1.873-87.542v-243.208z" />
<glyph unicode="&#xe926;" glyph-name="annotation-x" d="M853.333 627.208c0 36.539-0.013 61.382-1.583 80.584-1.527 18.705-4.309 28.285-7.71 34.958-8.179 16.053-21.235 29.111-37.291 37.292-6.673 3.4-16.252 6.18-34.957 7.709-19.204 1.568-44.045 1.583-80.585 1.583h-358.417c-36.539 0-61.382-0.015-80.584-1.583-18.705-1.528-28.285-4.308-34.958-7.709-16.053-8.18-29.111-21.238-37.292-37.292-3.4-6.673-6.18-16.253-7.709-34.958-1.568-19.202-1.583-44.044-1.583-80.584v-243.208c0-30.4 0.029-51.063 1.125-67.123 1.070-15.68 3.016-23.846 5.375-29.542 8.66-20.902 25.266-37.508 46.167-46.17 5.696-2.359 13.863-4.305 29.542-5.372 16.061-1.097 36.725-1.126 67.125-1.126 18.799 0 35.109 0.277 50.75-3.418 19.329-4.565 37.332-13.568 52.583-26.291 12.336-10.295 21.932-23.505 33.208-38.541l55.458-73.958 55.458 73.958c11.277 15.036 20.873 28.245 33.207 38.541 15.253 12.723 33.254 21.726 52.582 26.291 15.642 3.695 31.953 3.418 50.752 3.418 30.4 0 51.063 0.030 67.123 1.126 15.68 1.067 23.846 3.012 29.542 5.372 20.902 8.661 37.508 25.267 46.17 46.17 2.359 5.696 4.305 13.862 5.372 29.542 1.097 16.060 1.126 36.723 1.126 67.123v243.208zM588.501 648.833c16.661 16.662 43.669 16.662 60.331 0 16.666-16.662 16.666-43.671 0-60.333l-76.497-76.5 76.497-76.501c16.666-16.661 16.666-43.669 0-60.331-16.661-16.666-43.669-16.666-60.331 0l-76.501 76.497-76.501-76.497c-16.661-16.666-43.67-16.666-60.332 0-16.662 16.661-16.662 43.669 0 60.331l76.498 76.501-76.498 76.5c-16.662 16.662-16.662 43.671 0 60.333s43.671 16.662 60.332 0l76.501-76.5 76.501 76.5zM938.667 384c0-29.235 0.009-53.321-1.331-72.96-1.37-20.011-4.292-38.515-11.669-56.333-17.323-41.818-50.556-75.051-92.373-92.373-17.818-7.377-36.322-10.3-56.333-11.669-19.639-1.34-43.725-1.331-72.96-1.331-22.865 0-27.43-0.256-31.125-1.126-6.447-1.519-12.454-4.548-17.54-8.789-2.918-2.436-5.858-5.909-19.584-24.209l-62.293-83.085c-4.151-5.534-8.947-11.972-13.542-17.084-4.774-5.308-12.736-13.133-24.708-17.792-14.921-5.803-31.492-5.803-46.413 0-11.972 4.659-19.934 12.484-24.708 17.792-4.595 5.111-9.391 11.55-13.542 17.084l-62.293 83.085c-13.726 18.3-16.666 21.773-19.583 24.209-5.085 4.241-11.095 7.27-17.542 8.789-3.696 0.87-8.261 1.126-31.125 1.126-29.236 0-53.319-0.009-72.958 1.331-20.010 1.37-38.516 4.292-56.333 11.669-41.818 17.323-75.053 50.556-92.375 92.373-7.377 17.818-10.3 36.322-11.667 56.333-1.34 19.639-1.333 43.725-1.333 72.96v243.208c0 35.136-0.044 64.059 1.875 87.542 1.96 23.981 6.158 46.044 16.708 66.75 16.361 32.107 42.476 58.222 74.583 74.583 20.706 10.551 42.769 14.749 66.75 16.708 23.483 1.919 52.406 1.875 87.542 1.875h358.417c35.136 0 64.060 0.044 87.543-1.875 23.979-1.96 46.042-6.158 66.748-16.708 32.107-16.361 58.223-42.476 74.586-74.583 10.547-20.706 14.746-42.769 16.708-66.75 1.916-23.483 1.873-52.406 1.873-87.542v-243.208z" />
<glyph unicode="&#xe927;" glyph-name="annotation" d="M853.333 627.208c0 36.539-0.013 61.382-1.583 80.584-1.527 18.705-4.309 28.285-7.71 34.958-8.179 16.053-21.235 29.111-37.291 37.292-6.673 3.4-16.252 6.18-34.957 7.709-19.204 1.568-44.045 1.583-80.585 1.583h-358.417c-36.539 0-61.382-0.015-80.584-1.583-18.705-1.528-28.285-4.308-34.958-7.709-16.053-8.18-29.111-21.238-37.292-37.292-3.4-6.673-6.18-16.253-7.709-34.958-1.568-19.202-1.583-44.044-1.583-80.584v-243.208c0-30.4 0.029-51.063 1.125-67.123 1.070-15.68 3.016-23.846 5.375-29.542 8.66-20.902 25.266-37.508 46.167-46.17 5.696-2.359 13.863-4.305 29.542-5.372 16.061-1.097 36.725-1.126 67.125-1.126 18.799 0 35.109 0.277 50.75-3.418 19.329-4.565 37.332-13.568 52.583-26.291 12.336-10.295 21.932-23.505 33.208-38.541l55.458-73.958 55.458 73.958c11.277 15.036 20.873 28.245 33.207 38.541 15.253 12.723 33.254 21.726 52.582 26.291 15.642 3.695 31.953 3.418 50.752 3.418 30.4 0 51.063 0.030 67.123 1.126 15.68 1.067 23.846 3.012 29.542 5.372 20.902 8.661 37.508 25.267 46.17 46.17 2.359 5.696 4.305 13.862 5.372 29.542 1.097 16.060 1.126 36.723 1.126 67.123v243.208zM938.667 384c0-29.235 0.009-53.321-1.331-72.96-1.37-20.011-4.292-38.515-11.669-56.333-17.323-41.818-50.556-75.051-92.373-92.373-17.818-7.377-36.322-10.3-56.333-11.669-19.639-1.34-43.725-1.331-72.96-1.331-22.865 0-27.43-0.256-31.125-1.126-6.447-1.519-12.454-4.548-17.54-8.789-2.918-2.436-5.858-5.909-19.584-24.209l-62.293-83.085c-4.151-5.534-8.947-11.972-13.542-17.084-4.774-5.308-12.736-13.133-24.708-17.792-14.921-5.803-31.492-5.803-46.413 0-11.972 4.659-19.934 12.484-24.708 17.792-4.595 5.111-9.391 11.55-13.542 17.084l-62.293 83.085c-13.726 18.3-16.666 21.773-19.583 24.209-5.085 4.241-11.095 7.27-17.542 8.789-3.696 0.87-8.261 1.126-31.125 1.126-29.236 0-53.319-0.009-72.958 1.331-20.010 1.37-38.516 4.292-56.333 11.669-41.818 17.323-75.053 50.556-92.375 92.373-7.377 17.818-10.3 36.322-11.667 56.333-1.34 19.639-1.333 43.725-1.333 72.96v243.208c0 35.136-0.044 64.059 1.875 87.542 1.96 23.981 6.158 46.044 16.708 66.75 16.361 32.107 42.476 58.222 74.583 74.583 20.706 10.551 42.769 14.749 66.75 16.708 23.483 1.919 52.406 1.875 87.542 1.875h358.417c35.136 0 64.060 0.044 87.543-1.875 23.979-1.96 46.042-6.158 66.748-16.708 32.107-16.361 58.223-42.476 74.586-74.583 10.547-20.706 14.746-42.769 16.708-66.75 1.916-23.483 1.873-52.406 1.873-87.542v-243.208z" />
<glyph unicode="&#xe928;" glyph-name="announcement-01" d="M746.667 741.268c0 23.027-0.047 37.733-0.875 48.167-0.081 1.042-0.286 1.961-0.375 2.792-0.99-0.409-2.167-0.793-3.456-1.375-10.253-4.624-24.132-12.143-45.504-23.792-71.433-38.94-172.011-84.375-259.123-84.375h-147.208c-36.541 0-61.382-0.056-80.584-1.625-18.705-1.528-28.285-4.308-34.958-7.709-16.050-8.181-29.113-21.239-37.292-37.292-3.396-6.671-6.181-16.233-7.709-34.917-1.569-19.204-1.583-44.078-1.583-80.623v-51.17c0-20.454 0.019-33.681 0.708-43.789 0.663-9.711 1.806-13.431 2.542-15.211 4.329-10.449 12.634-18.752 23.084-23.083 1.775-0.734 5.485-1.877 15.208-2.543 10.111-0.687 23.328-0.708 43.792-0.708 23.558 0 42.658-19.11 42.667-42.667v-181.333c0-10.918 0.055-13.312 0.208-14.874 1.999-20.254 18.038-36.254 38.292-38.251 1.56-0.154 3.943-0.209 14.833-0.209s13.273 0.055 14.833 0.209c20.254 1.997 36.292 17.997 38.292 38.251 0.154 1.562 0.208 3.955 0.208 14.874v181.333c0.009 23.556 19.108 42.667 42.667 42.667h32c87.113 0 187.691-45.474 259.123-84.416 21.367-11.648 35.255-19.166 45.504-23.791 1.28-0.58 2.47-0.926 3.456-1.331 0.090 0.823 0.294 1.754 0.375 2.79 0.828 10.432 0.875 25.109 0.875 48.124v415.875zM896 448.017v170.668c0.009 23.556 19.11 42.667 42.667 42.667 23.561 0 42.658-19.11 42.667-42.667v-170.668c0-23.565-19.102-42.667-42.667-42.667s-42.667 19.102-42.667 42.667zM832 325.393c0-21.53 0.038-40.29-1.126-54.916-1.071-13.466-3.537-32.141-14.788-47.876-14.34-20.041-34.586-32.043-59.042-35.042-19.533-2.389-37.692 4.834-50.167 10.462-13.892 6.268-31.177 15.697-51.294 26.667-66.927 36.48-145.455 70.084-207.582 73.664v-138.334c0-8.887 0.043-16.465-0.623-23.249-5.995-60.762-54.071-108.847-114.835-114.833-6.782-0.666-14.321-0.585-23.209-0.585s-16.426-0.081-23.208 0.585c-60.765 5.986-108.839 54.071-114.833 114.833-0.668 6.784-0.625 14.362-0.625 23.249v139.337c-2.379 0.102-4.691 0.055-6.917 0.205-14.073 0.96-28.177 3.076-42.083 8.836-31.359 12.992-56.259 37.931-69.25 69.291-5.758 13.901-7.873 27.972-8.833 42.039-0.934 13.692-0.917 30.332-0.917 49.626v51.17c0 35.127-0.042 64.058 1.875 87.54 1.959 23.978 6.161 46.046 16.708 66.75 16.359 32.107 42.479 58.22 74.583 74.583 20.706 10.55 42.769 14.749 66.75 16.708 23.483 1.919 52.406 1.917 87.542 1.917h147.208c63.616 0 147.43 35.354 218.249 73.958 20.117 10.967 37.402 20.398 51.294 26.667 10.914 4.925 26.18 11.099 42.914 10.959l7.253-0.458 8.956-1.583c20.459-4.58 37.538-15.962 50.086-33.5 11.251-15.738 13.717-34.409 14.788-47.875 1.165-14.628 1.126-33.387 1.126-54.917v-415.875z" />
<glyph unicode="&#xe929;" glyph-name="announcement-02" d="M384 298.684h-106.667c-16.437 0-32.474 1.702-47.958 4.919l49.875-199.334c2.077-8.307 2.536-10.044 2.959-11.294 5.459-16.115 19.999-27.443 36.958-28.83 1.31-0.107 3.133-0.128 11.667-0.128 10.751 0 13.088 0.017 14.625 0.166 20.305 1.971 36.364 18.069 38.333 38.379 0.148 1.536 0.208 3.891 0.208 14.622v181.5zM896 533.352c-0.009 43.724-26.347 81.245-64 97.708v-195.416c37.653 16.469 64 53.982 64 97.708zM128 533.352c0-82.476 66.859-149.335 149.333-149.335h106.667v298.668h-106.667c-82.469 0-149.324-66.866-149.333-149.333zM746.667 741.268c0 23.027-0.047 37.733-0.875 48.167-0.085 1.042-0.286 1.961-0.375 2.792-0.99-0.409-2.167-0.793-3.46-1.375-10.249-4.624-24.128-12.143-45.5-23.792-62.822-34.248-148.198-73.49-227.123-82.458v-302.5c78.925-8.969 164.301-48.252 227.123-82.5 21.367-11.648 35.255-19.166 45.5-23.791 1.284-0.58 2.475-0.926 3.46-1.331 0.090 0.823 0.294 1.754 0.375 2.79 0.828 10.432 0.875 25.109 0.875 48.124v415.875zM832 720.56c85.495-19.402 149.325-95.843 149.333-187.209 0-91.368-63.838-167.758-149.333-187.167v-20.791c0-21.53 0.038-40.29-1.126-54.916-1.071-13.466-3.537-32.141-14.788-47.876-14.34-20.041-34.586-32.043-59.042-35.042-19.533-2.389-37.692 4.834-50.167 10.462-13.892 6.268-31.177 15.697-51.294 26.667-59.469 32.418-128.102 62.507-186.249 71.33v-178.833c0-8.755 0.064-16.192-0.585-22.874-5.905-60.915-54.126-109.124-115.040-115.042-6.68-0.649-14.121-0.585-22.875-0.585-7.003 0-12.997-0.043-18.625 0.418-50.88 4.16-94.456 38.148-110.833 86.498-1.811 5.35-3.219 11.17-4.917 17.958l-66.875 267.541c-53.001 43.029-86.917 108.663-86.917 182.252 0.009 129.595 105.070 234.667 234.667 234.667h160c63.616 0 147.43 35.354 218.249 73.958 20.117 10.967 37.402 20.398 51.294 26.667 10.914 4.925 26.18 11.099 42.914 10.959l7.253-0.458 8.956-1.583c20.459-4.58 37.538-15.962 50.086-33.5 11.251-15.738 13.717-34.409 14.788-47.875 1.165-14.628 1.126-33.387 1.126-54.917v-20.708z" />
<glyph unicode="&#xe92a;" glyph-name="announcement-03" d="M597.333 554.667c0 77.913 16.004 150.749 44.041 207.125l-401.5-73.041c-42.268-7.685-54.814-10.406-64.166-15-21.692-10.658-37.852-30.002-44.459-53.25-2.847-10.024-3.25-22.863-3.25-65.833s0.403-55.808 3.25-65.835c6.607-23.245 22.767-42.59 44.459-53.248 9.352-4.595 21.899-7.317 64.166-15.002l401.5-72.998c-28.028 56.371-44.041 129.186-44.041 207.083zM272.707 130.458c0.847-11.844 1.306-18.287 2-22.874 0.022-0.145 0.062-0.286 0.083-0.418 0.159-0.013 0.323-0.068 0.5-0.081 4.624-0.367 11.081-0.418 22.959-0.418h76.041c13.527 0 21.037 0.047 26.417 0.499 0.206 0.017 0.399 0.068 0.584 0.085 0.003 0.192 0.040 0.41 0.041 0.623 0.038 5.397-0.505 12.898-1.542 26.377l-13.333 172.958-128.083 23.292 14.333-200.043zM682.667 554.667c0-70.933 15.561-133.039 38.622-175.876 17.289-32.107 35.657-48.401 51.294-55.040l19.665-3.584c17.843 1.463 42.394 16.405 65.126 58.624 23.061 42.837 38.626 104.943 38.626 175.876s-15.565 133.040-38.626 175.875c-22.733 42.222-47.283 57.203-65.126 58.667l-19.665-3.583c-15.637-6.634-33.997-22.967-51.294-55.084-23.061-42.835-38.622-104.943-38.622-175.875zM981.333 554.667c0-82.231-17.852-158.793-48.836-216.333-30.046-55.804-78.711-103.667-143.164-103.667-14.161 0-27.52 2.428-40.128 6.626l-275.917 50.167 11.584-150.669c0.926-12.036 1.865-23.718 1.792-33.54-0.073-10.287-1.178-22.605-6.75-35.166-7.667-17.293-20.847-31.569-37.5-40.542-12.105-6.524-24.331-8.555-34.583-9.417-9.785-0.823-21.48-0.794-33.542-0.794h-76.041c-10.514 0-20.898-0.026-29.667 0.666-9.293 0.738-20.2 2.479-31.291 7.834-15.477 7.475-28.359 19.43-36.917 34.334-6.132 10.684-8.603 21.449-10 30.669-1.317 8.695-2.042 19.051-2.792 29.538l-15.917 222.916c-12.392 3.123-23.44 6.686-33.583 11.669-43.398 21.316-75.706 60.070-88.916 106.581-6.891 24.269-6.5 51.661-6.5 89.126 0 37.468-0.391 64.858 6.5 89.125 13.21 46.511 45.519 85.265 88.916 106.583 22.645 11.123 49.675 15.631 86.542 22.333l524.582 95.334c12.608 4.197 25.967 6.625 40.128 6.625 64.452 0 113.118-47.864 143.164-103.667 30.985-57.54 48.836-134.103 48.836-216.333z" />
<glyph unicode="&#xe92b;" glyph-name="archive" d="M810.667 575.999h-597.334v-307.208c0-36.54 0.015-61.385 1.583-80.585 1.528-18.705 4.308-28.284 7.709-34.957 8.18-16.055 21.238-29.111 37.292-37.295 6.673-3.396 16.253-6.178 34.959-7.706 19.201-1.57 44.044-1.583 80.583-1.583h273.084c36.54 0 61.38 0.013 80.585 1.583 18.705 1.527 28.284 4.309 34.957 7.706 16.051 8.183 29.111 21.239 37.291 37.295 3.401 6.673 6.182 16.252 7.71 34.957 1.566 19.2 1.583 44.045 1.583 80.585v307.208zM597.333 448c23.565 0 42.667-19.102 42.667-42.667s-19.102-42.667-42.667-42.667h-170.667c-23.564 0-42.667 19.102-42.667 42.667s19.103 42.667 42.667 42.667h170.667zM896 725.332c0 21.87-0.222 26.584-0.832 29.667-3.371 16.916-16.585 30.13-33.502 33.5-3.081 0.614-7.795 0.834-29.666 0.834h-640c-21.87 0-26.584-0.22-29.667-0.834-16.916-3.369-30.13-16.584-33.5-33.5-0.614-3.083-0.834-7.796-0.834-29.667s0.22-26.584 0.834-29.667c3.369-16.916 16.584-30.13 33.5-33.5 1.037-0.207 3.305-0.55 9.417-0.709 0.54-0.014 1.091-0.091 1.625-0.125h677.249c0.533 0.033 1.088 0.111 1.626 0.125 6.11 0.158 8.38 0.502 9.417 0.709 16.917 3.369 30.131 16.584 33.502 33.5 0.61 3.083 0.832 7.796 0.832 29.667zM981.333 725.332c0-17.775 0.205-32.891-2.458-46.292-8.892-44.707-40.734-80.82-82.876-95.708v-314.541c0-35.136 0.043-64.060-1.877-87.543-1.958-23.979-6.157-46.042-16.708-66.748-16.358-32.107-42.475-58.223-74.581-74.586-20.706-10.551-42.769-14.75-66.752-16.708-23.479-1.916-52.403-1.873-87.539-1.873h-273.084c-35.136 0-64.059-0.043-87.542 1.873-23.981 1.958-46.044 6.157-66.75 16.708-32.107 16.363-58.222 42.479-74.583 74.586-10.55 20.706-14.749 42.769-16.708 66.748-1.919 23.484-1.875 52.407-1.875 87.543v314.541c-42.141 14.889-73.982 51.001-82.875 95.708-2.663 13.401-2.458 28.518-2.458 46.292s-0.205 32.891 2.458 46.292c10.1 50.776 49.807 90.483 100.583 100.583 13.4 2.663 28.517 2.458 46.292 2.458h640c17.775 0 32.892 0.205 46.293-2.458 50.773-10.1 90.483-49.807 100.582-100.583 2.662-13.4 2.458-28.517 2.458-46.292z" />
<glyph unicode="&#xe92c;" glyph-name="arrow-block-down" d="M605.875 874.668c5.261 0 11.767 0.047 17.455-0.417 4.651-0.38 10.829-1.233 17.545-3.625l6.831-2.917 4.42-2.5c8.589-5.27 15.812-12.492 21.082-21.083l2.5-4.417 2.914-6.833c2.394-6.716 3.247-12.891 3.627-17.542 0.465-5.69 0.418-12.196 0.418-17.458v-392.543h128c17.254 0 32.811-10.394 39.415-26.334s2.953-34.295-9.25-46.498l-298.667-298.667c-16.661-16.661-43.669-16.661-60.335 0l-298.665 298.667c-12.203 12.203-15.854 30.558-9.25 46.498 6.605 15.94 22.162 26.334 39.417 26.334h128v392.543c0 5.262-0.047 11.769 0.417 17.458 0.506 6.192 1.811 15.083 6.542 24.375 6.136 12.043 15.957 21.864 28 28l6.833 2.917c6.716 2.392 12.891 3.245 17.542 3.625 5.69 0.464 12.196 0.417 17.458 0.417h187.751zM426.665 362.667c0-23.565-19.102-42.667-42.667-42.667h-67.667l195.668-195.665 195.665 195.665h-67.665c-23.565 0-42.667 19.102-42.667 42.667v426.668h-170.668v-426.668z" />
<glyph unicode="&#xe92d;" glyph-name="arrow-block-left" d="M188.335 448l195.667-195.665v67.665c0 23.565 19.102 42.667 42.665 42.667h426.667v170.668h-426.667c-23.562 0-42.665 19.102-42.665 42.667v67.667l-195.667-195.668zM938.667 354.125c0-5.261 0.047-11.767-0.414-17.455-0.508-6.195-1.813-15.083-6.541-24.375-6.14-12.045-15.957-21.867-28.002-28.002-9.293-4.732-18.185-6.033-24.375-6.541-5.687-0.465-12.194-0.418-17.459-0.418h-392.542v-128c0-17.254-10.389-32.811-26.33-39.415-15.945-6.605-34.299-2.953-46.502 9.25l-298.667 298.667c-16.663 16.661-16.663 43.669 0 60.335l298.667 298.665c12.202 12.203 30.557 15.854 46.502 9.25 15.94-6.605 26.33-22.162 26.33-39.417v-128h392.542c5.265 0 11.772 0.047 17.459-0.417 6.191-0.506 15.083-1.811 24.375-6.542 10.539-5.368 19.349-13.559 25.502-23.583l2.5-4.417 2.914-6.833c2.394-6.716 3.247-12.891 3.627-17.542 0.461-5.69 0.414-12.196 0.414-17.458v-187.751z" />
<glyph unicode="&#xe92e;" glyph-name="arrow-block-right" d="M581.001 786.085c15.945 6.604 34.3 2.953 46.502-9.25l298.667-298.665c16.661-16.666 16.661-43.674 0-60.335l-298.667-298.667c-12.203-12.203-30.558-15.855-46.502-9.25-15.94 6.605-26.334 22.161-26.334 39.415v128h-392.54c-5.262 0-11.769-0.047-17.458 0.418-6.192 0.508-15.083 1.809-24.375 6.541-12.042 6.135-21.864 15.957-28 28.002-4.731 9.293-6.036 18.18-6.542 24.375-0.464 5.687-0.417 12.194-0.417 17.455v187.751c0 5.262-0.047 11.769 0.417 17.458 0.506 6.192 1.811 15.083 6.542 24.375l2.5 4.417c6.149 10.024 14.964 18.215 25.5 23.583 9.292 4.731 18.183 6.036 24.375 6.542 5.69 0.464 12.196 0.417 17.458 0.417h392.54v128c0 17.255 10.394 32.812 26.334 39.417zM640 576.001c0-23.564-19.102-42.667-42.667-42.667h-426.665v-170.668h426.665c23.565 0 42.667-19.102 42.667-42.667v-67.665l195.669 195.665-195.669 195.668v-67.667z" />
<glyph unicode="&#xe92f;" glyph-name="arrow-block-up" d="M316.332 576h67.667c23.564 0 42.667-19.103 42.667-42.666v-426.667h170.668v426.667c0 23.564 19.102 42.666 42.667 42.666h67.665l-195.665 195.667-195.668-195.667zM682.667 98.125c0-5.261 0.047-11.767-0.418-17.459-0.508-6.191-1.809-15.083-6.541-24.375-6.135-12.041-15.957-21.862-28.002-27.998-9.293-4.732-18.18-6.037-24.375-6.541-5.687-0.465-12.194-0.418-17.455-0.418h-187.751c-5.262 0-11.769-0.047-17.458 0.418-6.192 0.503-15.083 1.809-24.375 6.541-12.043 6.135-21.864 15.957-28 27.998-4.731 9.293-6.036 18.185-6.542 24.375-0.464 5.692-0.417 12.198-0.417 17.459v392.542h-128c-17.255 0-32.812 10.394-39.417 26.334-6.604 15.945-2.953 34.296 9.25 46.499l298.665 298.667 3.251 2.917c16.759 13.668 41.463 12.704 57.084-2.917l298.667-298.667c12.203-12.203 15.855-30.554 9.25-46.499-6.605-15.94-22.161-26.334-39.415-26.334h-128v-392.542z" />
<glyph unicode="&#xe930;" glyph-name="arrow-circle-broken-down-left" d="M180.121 779.873c122.876 122.876 296.922 163.323 453.377 121.542 22.763-6.080 36.288-29.484 30.208-52.25-6.084-22.76-29.487-36.287-52.25-30.208-128.23 34.237-270.54 1.044-371.002-99.417-149.961-149.961-149.961-393.123 0-543.083s393.12-149.961 543.085 0c100.459 100.463 133.653 242.769 99.413 370.999-6.076 22.763 7.45 46.166 30.208 52.25 22.767 6.080 46.17-7.443 52.254-30.208 41.779-156.455 1.331-330.501-121.545-453.376-183.283-183.283-480.463-183.283-663.749 0-183.286 183.287-183.286 480.465 0 663.751zM780.497 776.831c16.661 16.663 43.669 16.662 60.331 0 16.666-16.662 16.661-43.671 0-60.333l-353.83-353.836h152.998c23.565 0 42.667-19.102 42.667-42.667 0-23.561-19.102-42.667-42.667-42.667h-256c-23.56 0.009-42.667 19.106-42.667 42.667v256.002c0 23.561 19.107 42.661 42.667 42.667 23.564 0 42.667-19.103 42.667-42.667v-153.001l353.835 353.834z" />
<glyph unicode="&#xe931;" glyph-name="arrow-circle-broken-down-right" d="M390.502 901.414c156.455 41.781 330.501 1.335 453.376-121.542 183.283-183.286 183.283-480.464 0-663.751-183.287-183.283-480.465-183.283-663.751 0-122.876 122.876-163.323 296.922-121.542 453.376 6.080 22.765 29.484 36.288 52.25 30.208 22.76-6.084 36.287-29.487 30.208-52.25-34.237-128.226-1.044-270.537 99.417-370.999 149.961-149.961 393.123-149.961 543.083 0s149.961 393.122 0 543.083c-100.463 100.461-242.773 133.653-370.999 99.417-22.763-6.079-46.166 7.448-52.25 30.208-6.080 22.766 7.443 46.17 30.208 52.25zM183.169 776.831c16.662 16.662 43.671 16.662 60.333 0l353.836-353.834v153.001c0 23.562 19.102 42.664 42.667 42.667 23.561 0 42.662-19.103 42.667-42.667v-256.002c0-23.561-19.106-42.667-42.667-42.667h-256.002c-23.561 0.004-42.667 19.106-42.667 42.667 0 23.565 19.105 42.667 42.667 42.667h153.001l-353.834 353.836c-16.663 16.662-16.662 43.671 0 60.333z" />
<glyph unicode="&#xe932;" glyph-name="arrow-circle-broken-down" d="M42.667 448c0 173.767 94.461 325.412 234.625 406.5 20.393 11.797 46.489 4.846 58.292-15.541 11.797-20.393 4.845-46.489-15.541-58.292-114.889-66.46-192.042-190.586-192.042-332.667 0-212.079 171.923-384 384-384 212.079 0 384 171.921 384 384 0 142.080-77.154 266.207-192.043 332.667-20.386 11.803-27.337 37.899-15.539 58.292 11.802 20.387 37.897 27.338 58.291 15.541 140.164-81.088 234.624-232.733 234.624-406.5 0-259.204-210.129-469.333-469.333-469.333-259.206 0-469.333 210.129-469.333 469.333zM469.333 874.667c0 23.564 19.102 42.667 42.667 42.667s42.667-19.103 42.667-42.667v-494.332l97.835 97.83c16.661 16.666 43.669 16.666 60.331 0 16.666-16.661 16.666-43.669 0-60.331l-170.667-170.667c-16.661-16.666-43.669-16.666-60.331 0l-170.668 170.667c-16.663 16.661-16.663 43.669 0 60.331 16.662 16.666 43.671 16.666 60.333 0l97.833-97.83v494.332z" />
<glyph unicode="&#xe933;" glyph-name="arrow-circle-broken-left" d="M42.661 448c0 259.206 210.128 469.333 469.334 469.333 173.764 0 325.41-94.461 406.498-234.625 11.797-20.393 4.847-46.489-15.539-58.292-20.395-11.797-46.49-4.845-58.291 15.541-66.462 114.889-190.588 192.042-332.668 192.042-212.078 0-384.001-171.923-384.001-384 0-212.079 171.923-384 384.001-384 142.080 0 266.206 77.154 332.668 192.043 11.802 20.386 37.897 27.337 58.291 15.539 20.386-11.802 27.337-37.897 15.539-58.291-81.088-140.164-232.734-234.624-406.498-234.624-259.206 0-469.334 210.129-469.334 469.333zM481.826 648.833c16.666 16.662 43.674 16.661 60.335 0 16.661-16.662 16.661-43.671 0-60.333l-97.835-97.833h494.336c23.565 0 42.667-19.102 42.667-42.667s-19.102-42.667-42.667-42.667h-494.336l97.835-97.835c16.661-16.661 16.661-43.669 0-60.331s-43.669-16.661-60.335 0l-170.665 170.667c-16.66 16.661-16.66 43.669 0 60.331l170.665 170.668z" />
<glyph unicode="&#xe934;" glyph-name="arrow-circle-broken-right" d="M896 448c0 212.077-171.921 384-384 384-142.079-0.001-266.207-77.153-332.667-192.042-11.803-20.386-37.899-27.338-58.292-15.541-20.386 11.803-27.338 37.899-15.541 58.292 81.087 140.163 232.734 234.624 406.5 234.625 259.204 0 469.333-210.128 469.333-469.333s-210.129-469.333-469.333-469.333c-173.766 0-325.413 94.46-406.5 234.624-11.796 20.395-4.844 46.49 15.541 58.291 20.393 11.797 46.489 4.847 58.292-15.539 66.46-114.889 190.588-192.043 332.667-192.043 212.079 0 384 171.921 384 384zM481.835 648.833c16.661 16.663 43.669 16.663 60.331 0l170.667-170.668c8.004-8 12.501-18.85 12.501-30.165s-4.497-22.165-12.501-30.165l-170.667-170.667c-16.661-16.666-43.669-16.666-60.331 0-16.666 16.661-16.666 43.669 0 60.331l97.83 97.835h-494.332c-23.564 0-42.667 19.102-42.667 42.667s19.103 42.667 42.667 42.667h494.332l-97.83 97.833c-16.666 16.662-16.666 43.671 0 60.333z" />
<glyph unicode="&#xe935;" glyph-name="arrow-circle-broken-up-left" d="M180.121 779.879c183.286 183.286 480.466 183.286 663.749 0 122.876-122.876 163.324-296.922 121.545-453.377-6.084-22.763-29.487-36.288-52.254-30.208-22.758 6.084-36.284 29.487-30.208 52.25 34.24 128.23 1.045 270.54-99.413 371.002-149.965 149.961-393.124 149.961-543.085 0s-149.961-393.12 0-543.085c100.462-100.459 242.772-133.653 371.002-99.413 22.763 6.076 46.165-7.45 52.25-30.208 6.080-22.767-7.445-46.17-30.208-52.254-156.454-41.779-330.501-1.331-453.377 121.545-183.286 183.283-183.286 480.463 0 663.749zM341.329 320.004v256c0.003 23.559 19.109 42.661 42.667 42.667h256c23.565 0 42.662-19.104 42.667-42.667 0-23.564-19.102-42.667-42.667-42.667h-152.998l353.83-353.835c16.666-16.661 16.666-43.669 0-60.331-16.661-16.666-43.669-16.666-60.331 0l-353.835 353.83v-152.998c0-23.565-19.102-42.667-42.667-42.667-23.56 0.004-42.667 19.106-42.667 42.667z" />
<glyph unicode="&#xe936;" glyph-name="arrow-circle-broken-up-right" d="M180.127 779.879c183.286 183.286 480.464 183.286 663.751 0 183.283-183.286 183.283-480.466 0-663.749-122.876-122.876-296.922-163.324-453.376-121.545-22.765 6.084-36.288 29.487-30.208 52.254 6.084 22.758 29.487 36.284 52.25 30.208 128.226-34.24 270.537-1.045 370.999 99.413 149.961 149.965 149.961 393.124 0 543.085s-393.122 149.961-543.083 0c-100.461-100.462-133.653-242.772-99.417-371.002 6.079-22.763-7.448-46.165-30.208-52.25-22.766-6.080-46.17 7.445-52.25 30.208-41.781 156.454-1.335 330.501 121.542 453.377zM682.671 320.004c0-23.565-19.106-42.667-42.667-42.667-23.565 0.004-42.667 19.106-42.667 42.667v152.998l-353.836-353.83c-16.662-16.661-43.671-16.666-60.333 0-16.662 16.661-16.663 43.669 0 60.331l353.834 353.835h-153.001c-23.561 0.003-42.667 19.104-42.667 42.667 0.003 23.56 19.107 42.663 42.667 42.667h256.002c23.561 0 42.662-19.104 42.667-42.667v-256z" />
<glyph unicode="&#xe937;" glyph-name="arrow-circle-broken-up" d="M469.333 21.338v494.336l-97.833-97.835c-16.662-16.661-43.671-16.661-60.333 0s-16.662 43.669 0 60.335l170.668 170.665 3.247 2.917c16.759 13.667 41.463 12.703 57.084-2.917l170.667-170.665c16.661-16.666 16.661-43.674 0-60.335s-43.669-16.661-60.331 0l-97.835 97.835v-494.336c0-23.565-19.102-42.667-42.667-42.667s-42.667 19.102-42.667 42.667zM896 448.004c0 212.078-171.921 384.001-384 384.001-212.077 0-384-171.923-384-384.001 0-142.080 77.152-266.206 192.042-332.668 20.387-11.802 27.338-37.897 15.541-58.291-11.802-20.386-37.898-27.337-58.292-15.539-140.164 81.088-234.625 232.734-234.625 406.498 0 259.206 210.128 469.334 469.333 469.334 259.204 0 469.333-210.128 469.333-469.334 0-173.764-94.46-325.41-234.624-406.498-20.395-11.797-46.49-4.847-58.291 15.539-11.797 20.395-4.847 46.49 15.539 58.291 114.889 66.462 192.043 190.588 192.043 332.668z" />
<glyph unicode="&#xe938;" glyph-name="arrow-circle-down-left" d="M896 448c0 212.077-171.921 384-384 384-212.077 0-384-171.923-384-384 0-212.079 171.923-384 384-384 212.079 0 384 171.921 384 384zM609.835 606.167c16.661 16.662 43.669 16.66 60.331 0 16.666-16.662 16.666-43.671 0-60.333l-183.164-183.167h152.998c23.565 0 42.667-19.102 42.667-42.667s-19.102-42.667-42.667-42.667h-256c-23.561 0.004-42.667 19.106-42.667 42.667v256c0.001 23.561 19.107 42.662 42.667 42.667 23.564 0 42.665-19.104 42.667-42.667v-152.998l183.168 183.165zM981.333 448c0-259.204-210.129-469.333-469.333-469.333-259.206 0-469.333 210.129-469.333 469.333 0 259.206 210.128 469.333 469.333 469.333s469.333-210.128 469.333-469.333z" />
<glyph unicode="&#xe939;" glyph-name="arrow-circle-down-right" d="M896 448c0 212.077-171.921 384-384 384-212.077 0-384-171.923-384-384 0-212.079 171.923-384 384-384 212.079 0 384 171.921 384 384zM353.833 606.167c16.661 16.661 43.671 16.66 60.333 0l183.167-183.165v152.998c0 23.561 19.106 42.662 42.667 42.667 23.565 0 42.667-19.104 42.667-42.667v-256c0-23.565-19.102-42.667-42.667-42.667h-256c-23.561 0.004-42.667 19.106-42.667 42.667s19.107 42.662 42.667 42.667h152.998l-183.165 183.167c-16.658 16.661-16.656 43.671 0 60.333zM981.333 448c0-259.204-210.129-469.333-469.333-469.333-259.206 0-469.333 210.129-469.333 469.333 0 259.206 210.128 469.333 469.333 469.333s469.333-210.128 469.333-469.333z" />
<glyph unicode="&#xe93a;" glyph-name="arrow-circle-down" d="M896 448c0 212.077-171.921 384-384 384-212.077 0-384-171.923-384-384 0-212.079 171.923-384 384-384 212.079 0 384 171.921 384 384zM469.333 618.667c0 23.564 19.102 42.667 42.667 42.667s42.667-19.103 42.667-42.667v-238.332l97.835 97.83c16.661 16.666 43.669 16.666 60.331 0 16.666-16.661 16.666-43.669 0-60.331l-170.667-170.667c-16.661-16.666-43.669-16.666-60.331 0l-170.668 170.667c-16.663 16.661-16.663 43.669 0 60.331 16.662 16.666 43.671 16.666 60.333 0l97.833-97.83v238.332zM981.333 448c0-259.204-210.129-469.333-469.333-469.333-259.206 0-469.333 210.129-469.333 469.333 0 259.206 210.128 469.333 469.333 469.333s469.333-210.128 469.333-469.333z" />
<glyph unicode="&#xe93b;" glyph-name="arrow-circle-left" d="M896 448c0 212.077-171.921 384-384 384-212.077 0-384-171.923-384-384 0-212.079 171.923-384 384-384 212.079 0 384 171.921 384 384zM481.835 648.833c16.661 16.663 43.669 16.663 60.331 0 16.666-16.662 16.666-43.671 0-60.333l-97.83-97.833h238.332c23.565 0 42.667-19.102 42.667-42.667s-19.102-42.667-42.667-42.667h-238.332l97.83-97.835c16.666-16.661 16.666-43.669 0-60.331-16.661-16.666-43.669-16.666-60.331 0l-170.668 170.667c-16.663 16.661-16.663 43.669 0 60.331l170.668 170.668zM981.333 448c0-259.204-210.129-469.333-469.333-469.333-259.206 0-469.333 210.129-469.333 469.333 0 259.206 210.128 469.333 469.333 469.333s469.333-210.128 469.333-469.333z" />
<glyph unicode="&#xe93c;" glyph-name="arrow-circle-right" d="M896 448c0 212.077-171.921 384-384 384-212.077 0-384-171.923-384-384 0-212.079 171.923-384 384-384 212.079 0 384 171.921 384 384zM481.835 648.833c16.661 16.663 43.669 16.663 60.331 0l170.667-170.668c16.666-16.661 16.666-43.669 0-60.331l-170.667-170.667c-16.661-16.666-43.669-16.666-60.331 0-16.666 16.661-16.666 43.669 0 60.331l97.83 97.835h-238.332c-23.564 0-42.667 19.102-42.667 42.667s19.103 42.667 42.667 42.667h238.332l-97.83 97.833c-16.666 16.662-16.666 43.671 0 60.333zM981.333 448c0-259.204-210.129-469.333-469.333-469.333-259.206 0-469.333 210.129-469.333 469.333 0 259.206 210.128 469.333 469.333 469.333s469.333-210.128 469.333-469.333z" />
<glyph unicode="&#xe93d;" glyph-name="arrow-circle-up-left" d="M896 448c0 212.077-171.921 384-384 384-212.077 0-384-171.923-384-384 0-212.079 171.923-384 384-384 212.079 0 384 171.921 384 384zM341.333 320v256c0.001 23.561 19.107 42.662 42.667 42.667h256c23.565 0 42.667-19.104 42.667-42.667s-19.102-42.667-42.667-42.667h-152.998l183.164-183.168c16.666-16.661 16.666-43.669 0-60.331-16.661-16.657-43.669-16.661-60.331 0l-183.168 183.164v-152.998c0-23.565-19.103-42.667-42.667-42.667-23.561 0.004-42.667 19.106-42.667 42.667zM981.333 448c0-259.204-210.129-469.333-469.333-469.333-259.206 0-469.333 210.129-469.333 469.333 0 259.206 210.128 469.333 469.333 469.333s469.333-210.128 469.333-469.333z" />
<glyph unicode="&#xe93e;" glyph-name="arrow-circle-up-right" d="M896 448c0 212.077-171.921 384-384 384-212.077 0-384-171.923-384-384 0-212.079 171.923-384 384-384 212.079 0 384 171.921 384 384zM981.333 448c0-259.204-210.129-469.333-469.333-469.333-259.206 0-469.333 210.129-469.333 469.333 0 259.206 210.128 469.333 469.333 469.333s469.333-210.128 469.333-469.333zM682.667 320c0-23.565-19.102-42.667-42.667-42.667-23.561 0.004-42.667 19.106-42.667 42.667v152.998l-183.167-183.164c-16.663-16.657-43.673-16.661-60.333 0-16.658 16.661-16.656 43.669 0 60.331l183.165 183.168h-152.998c-23.561 0.004-42.667 19.105-42.667 42.667s19.107 42.662 42.667 42.667h256c23.565 0 42.667-19.104 42.667-42.667v-256z" />
<glyph unicode="&#xe93f;" glyph-name="arrow-circle-up" d="M896 448c0 212.077-171.921 384-384 384-212.077 0-384-171.923-384-384 0-212.079 171.923-384 384-384 212.079 0 384 171.921 384 384zM469.333 277.333v238.332l-97.833-97.83c-16.662-16.666-43.671-16.666-60.333 0-16.663 16.661-16.663 43.669 0 60.331l170.668 170.668 3.247 2.917c16.759 13.668 41.463 12.704 57.084-2.917l170.667-170.668c16.666-16.661 16.666-43.669 0-60.331-16.661-16.666-43.669-16.666-60.331 0l-97.835 97.83v-238.332c0-23.565-19.102-42.667-42.667-42.667s-42.667 19.102-42.667 42.667zM981.333 448c0-259.204-210.129-469.333-469.333-469.333-259.206 0-469.333 210.129-469.333 469.333 0 259.206 210.128 469.333 469.333 469.333s469.333-210.128 469.333-469.333z" />
</font>
</defs>
</svg>
